<svg width="40" height="40" viewBox="0 0 40 40" fill="none" xmlns="http://www.w3.org/2000/svg">
<g filter="url(#filter0_b_267_38)">
<rect width="40" height="40" rx="12" fill="#141414" fill-opacity="0.8"/>
<rect width="40" height="40" rx="12" fill="url(#paint0_linear_267_38)" fill-opacity="0.16"/>
</g>
<path d="M16.2257 10H19.6646C19.6736 10.0958 19.6724 10.192 19.6712 10.2882C19.6715 12.4118 19.671 14.5355 19.6715 16.6594C20.1358 16.6523 20.6003 16.6578 21.0646 16.6562C21.3628 16.6597 21.6617 16.6466 21.9595 16.6666C22.0561 16.6704 22.1523 16.6594 22.2486 16.6562C22.4347 16.656 22.6209 16.6557 22.807 16.6578C22.9112 16.6547 23.0155 16.6542 23.1193 16.6642L23.0966 16.6653C23.0003 16.6646 22.904 16.6646 22.8076 16.6688C22.1417 16.6699 21.4756 16.6715 20.8096 16.6672C20.4292 16.672 20.0488 16.6702 19.6683 16.668C18.5366 16.668 17.4049 16.6688 16.2732 16.6675C15.8793 16.6568 15.4862 16.5824 15.1193 16.4373C14.5529 16.2158 14.0505 15.835 13.6825 15.351C13.3369 14.8987 13.1102 14.3563 13.0334 13.7922C12.9504 13.1923 13.0323 12.5698 13.2737 12.0139C13.548 11.3754 14.0288 10.8283 14.6252 10.472C15.1073 10.1814 15.664 10.0213 16.2257 10Z" fill="#F24E1E"/>
<path d="M19.6641 10H23.0882C23.6484 10.016 24.2044 10.172 24.687 10.4574C25.1798 10.7464 25.5959 11.1643 25.8831 11.6581C26.1103 12.047 26.2567 12.4829 26.3103 12.9302C26.3321 13.1366 26.3555 13.345 26.3279 13.552C26.2945 14.0595 26.1443 14.559 25.8887 14.9989C25.5948 15.5082 25.1638 15.9373 24.653 16.2288C24.1873 16.496 23.6556 16.6472 23.1188 16.6642C23.015 16.6542 22.9106 16.6547 22.8065 16.6578C22.6204 16.6557 22.4342 16.656 22.2481 16.6562C22.1518 16.6594 22.0556 16.6704 21.959 16.6666C21.6612 16.6466 21.3623 16.6597 21.0641 16.6562C20.5997 16.6578 20.1353 16.6523 19.6709 16.6594C19.6705 14.5355 19.6709 12.4118 19.6706 10.2882C19.6719 10.192 19.673 10.0958 19.6641 10Z" fill="#FF7262"/>
<path d="M14.6917 17.0995C15.1714 16.8264 15.7203 16.6763 16.2723 16.6675C17.404 16.6688 18.5357 16.668 19.6674 16.668C19.6691 17.7249 19.6656 18.7819 19.6693 19.8389C19.6691 19.8441 19.6688 19.8547 19.6687 19.86C19.6659 21.0176 19.6688 22.1755 19.6675 23.3333C18.5312 23.3338 17.3949 23.3338 16.2586 23.3331C15.8064 23.3214 15.3562 23.22 14.9451 23.0302C14.4221 22.7905 13.9639 22.4123 13.628 21.9453C13.2947 21.4838 13.0829 20.9355 13.0215 20.3696C12.9538 19.764 13.0544 19.1401 13.3141 18.5886C13.6047 17.9656 14.0935 17.4379 14.6917 17.0995Z" fill="#A259FF"/>
<path d="M22.8072 16.6687C22.9036 16.6646 22.9999 16.6646 23.0962 16.6652C23.6668 16.6862 24.2332 16.8468 24.7216 17.1446C25.262 17.4702 25.7068 17.9521 25.9872 18.5172C26.2212 18.9804 26.3317 19.499 26.341 20.0159C26.3269 20.4372 26.2532 20.8593 26.0919 21.2503C25.7831 22.018 25.1768 22.6599 24.4285 23.0127C23.9215 23.2547 23.3522 23.3622 22.7919 23.3265C22.2443 23.2932 21.7059 23.1211 21.241 22.83C20.7386 22.5175 20.3221 22.0691 20.0477 21.5449C19.7749 21.0295 19.6487 20.4419 19.6691 19.8599C19.6693 19.8547 19.6696 19.8441 19.6698 19.8388C19.6808 19.7111 19.6906 19.5831 19.7123 19.4569C19.8072 18.8723 20.064 18.3155 20.4448 17.862C20.8384 17.3908 21.364 17.0308 21.9469 16.8372C22.2247 16.7425 22.5155 16.6934 22.8072 16.6687Z" fill="#1ABCFE"/>
<path d="M16.2585 23.3331C17.3948 23.3338 18.5312 23.3338 19.6675 23.3333C19.6678 24.4464 19.6678 25.5595 19.6675 26.6727C19.6672 27.1933 19.543 27.7136 19.3057 28.1773C19.0267 28.7264 18.5921 29.1949 18.0659 29.5149C17.5758 29.8159 17.0065 29.981 16.4324 30H16.2396C15.9835 29.9896 15.728 29.9555 15.4801 29.889C14.8848 29.7325 14.3363 29.4048 13.9139 28.9574C13.3664 28.3832 13.0356 27.608 13.0044 26.815C12.9777 26.2334 13.1062 25.6453 13.3764 25.1293C13.671 24.5619 14.1329 24.0832 14.6891 23.7677C15.1654 23.495 15.7102 23.3472 16.2585 23.3331Z" fill="#0ACF83"/>
<defs>
<filter id="filter0_b_267_38" x="-10" y="-10" width="60" height="60" filterUnits="userSpaceOnUse" color-interpolation-filters="sRGB">
<feFlood flood-opacity="0" result="BackgroundImageFix"/>
<feGaussianBlur in="BackgroundImageFix" stdDeviation="5"/>
<feComposite in2="SourceAlpha" operator="in" result="effect1_backgroundBlur_267_38"/>
<feBlend mode="normal" in="SourceGraphic" in2="effect1_backgroundBlur_267_38" result="shape"/>
</filter>
<linearGradient id="paint0_linear_267_38" x1="0" y1="0" x2="0" y2="40" gradientUnits="userSpaceOnUse">
<stop stop-color="white" stop-opacity="0.5"/>
<stop offset="1" stop-opacity="0.5"/>
</linearGradient>
</defs>
</svg>
