<svg width="40" height="40" viewBox="0 0 40 40" fill="none" xmlns="http://www.w3.org/2000/svg">
<g filter="url(#filter0_b_0_8764)">
<rect width="40" height="40" rx="12" fill="#61DAFB" fill-opacity="0.24"/>
<rect width="40" height="40" rx="12" fill="url(#paint0_linear_0_8764)" fill-opacity="0.16"/>
</g>
<path fill-rule="evenodd" clip-rule="evenodd" d="M30 20.0021C30 18.6631 28.3408 17.3941 25.797 16.6072C26.384 13.987 26.1231 11.9023 24.9735 11.2348C24.7096 11.0789 24.4012 11.0047 24.0644 11.0041V11C22.9433 11 21.4757 11.8075 19.9918 13.2083C18.5079 11.8157 17.0404 11.0165 15.9193 11.0165V11.0206C15.5768 11.0206 15.267 11.0948 14.998 11.2513C13.8524 11.9187 13.5956 13.9993 14.1867 16.6114C11.651 17.4024 10 18.6672 10 20.0021C10 21.341 11.6592 22.61 14.203 23.3969C13.616 26.0172 13.8769 28.1019 15.0265 28.7693C15.2915 28.9258 15.6013 29 15.9437 29C17.0648 29 18.5324 28.1925 20.0163 26.7917C21.5002 28.1843 22.9678 28.9835 24.0889 28.9835C24.4313 28.9835 24.7411 28.9094 25.0102 28.7528C26.1557 28.0854 26.4126 26.0048 25.8214 23.3928C28.349 22.6059 30 21.3369 30 20.0021ZM20.64 13.851C21.9669 12.6047 23.2125 11.9209 24.0603 11.9188V11.9229C24.2479 11.9229 24.3987 11.9599 24.5251 12.03C25.0795 12.3513 25.32 13.575 25.1325 15.1488C25.0876 15.536 25.0143 15.9439 24.9246 16.36C24.1256 16.1623 23.2532 16.0098 22.3359 15.911C21.7856 15.1488 21.2148 14.4566 20.64 13.851ZM15.9193 11.9352C16.7631 11.9352 18.0147 12.615 19.3437 13.8551C18.7729 14.4607 18.2022 15.1488 17.66 15.911C16.7387 16.0098 15.8663 16.1623 15.0673 16.3642C14.9735 15.9522 14.9042 15.5525 14.8553 15.1694C14.6637 13.5956 14.9001 12.3719 15.4505 12.0465C15.5728 11.9723 15.7318 11.9393 15.9193 11.9393V11.9352ZM24.6919 17.2541C24.5411 17.7856 24.3536 18.3335 24.1416 18.8815C23.9744 18.5519 23.7991 18.2223 23.6075 17.8927C23.42 17.5631 23.2203 17.2417 23.0205 16.9286C23.5994 17.0151 24.1579 17.1222 24.6919 17.2541ZM21.8427 23.2156C22.181 22.7253 22.5072 22.198 22.8251 21.6418C23.1309 21.1021 23.4122 20.55 23.669 19.9979C23.4122 19.4459 23.1309 18.8979 22.8211 18.3582C22.5031 17.8061 22.1729 17.2829 21.8345 16.7926C21.2312 16.7432 20.6156 16.7144 20 16.7144C19.3804 16.7144 18.7648 16.7432 18.1574 16.7967C17.819 17.287 17.4929 17.8144 17.1749 18.3706C16.8692 18.9103 16.5838 19.4623 16.3311 20.0144C16.5879 20.5665 16.8692 21.1144 17.179 21.6542C17.497 22.2062 17.8272 22.7295 18.1655 23.2197C18.7689 23.2692 19.3845 23.298 20 23.298C20.6197 23.298 21.2353 23.2692 21.8427 23.2156ZM24.1424 21.1062C24.3625 21.6583 24.5501 22.2104 24.705 22.746C24.1709 22.8778 23.6083 22.989 23.0254 23.0756C23.2251 22.7583 23.4249 22.4328 23.6124 22.0991C23.8 21.7695 23.9752 21.4358 24.1424 21.1062ZM18.875 24.1838C19.2501 24.6658 19.6292 25.1067 20.0083 25.5022C20.3834 25.1067 20.7625 24.6658 21.1294 24.1838C20.7584 24.2044 20.3793 24.2126 19.9961 24.2126C19.6169 24.2126 19.2419 24.2003 18.875 24.1838ZM16.9751 23.0755C16.3963 22.989 15.8378 22.8819 15.3037 22.7501C15.4545 22.2186 15.6421 21.6706 15.8541 21.1227C16.0212 21.4523 16.1965 21.7819 16.3881 22.1115C16.5797 22.4411 16.7754 22.7624 16.9751 23.0755ZM21.1216 15.8204C20.7465 15.3383 20.3674 14.8975 19.9883 14.502C19.6132 14.8975 19.2341 15.3383 18.8672 15.8204C19.2382 15.7998 19.6173 15.7915 20.0005 15.7915C20.3796 15.7915 20.7547 15.8039 21.1216 15.8204ZM16.9706 16.9286C16.7708 17.2458 16.5711 17.5713 16.3836 17.905C16.196 18.2346 16.0207 18.5642 15.8536 18.8938C15.6335 18.3417 15.4459 17.7897 15.291 17.2541C15.8251 17.1264 16.3876 17.0151 16.9706 16.9286ZM10.9043 20.0021C10.9043 20.6489 11.8378 21.4647 13.281 22.0868C13.6356 22.2392 14.0189 22.3793 14.4224 22.507C14.6507 21.7036 14.9524 20.8673 15.3275 20.0103C14.9483 19.1492 14.6426 18.3088 14.4102 17.5013C14.0148 17.629 13.6316 17.7649 13.281 17.9174C11.8378 18.5354 10.9043 19.3552 10.9043 20.0021ZM15.475 27.9741C14.9206 27.6528 14.68 26.4292 14.8676 24.8553C14.9124 24.4681 14.9858 24.0602 15.0755 23.6441C15.8745 23.8418 16.7469 23.9943 17.6641 24.0931C18.2145 24.8553 18.7852 25.5475 19.36 26.1531C18.031 27.4015 16.7836 28.0854 15.9356 28.0854C15.7522 28.0812 15.5973 28.0442 15.475 27.9741ZM24.5494 27.9577C25.0998 27.6322 25.3362 26.4086 25.1446 24.8347C25.0998 24.4516 25.0264 24.052 24.9326 23.6358C24.1336 23.8377 23.2612 23.9902 22.3399 24.089C21.7977 24.8512 21.227 25.5393 20.6562 26.1449C21.9852 27.385 23.2368 28.0648 24.0806 28.0648C24.2682 28.0648 24.4271 28.0318 24.5494 27.9577ZM26.7144 22.0868C26.3639 22.2392 25.9806 22.3752 25.5852 22.5029C25.3528 21.6954 25.0471 20.8549 24.668 19.9938C25.043 19.1369 25.3447 18.3005 25.573 17.4972C25.9766 17.6249 26.3598 17.765 26.7185 17.9174C28.1616 18.5395 29.0952 19.3552 29.0952 20.0021C29.0911 20.6489 28.1576 21.4688 26.7144 22.0868ZM19.9958 21.8848C21.0248 21.8848 21.8589 21.0419 21.8589 20.002C21.8589 18.9622 21.0248 18.1192 19.9958 18.1192C18.9669 18.1192 18.1328 18.9622 18.1328 20.002C18.1328 21.0419 18.9669 21.8848 19.9958 21.8848Z" fill="#33CEF9"/>
<defs>
<filter id="filter0_b_0_8764" x="-10" y="-10" width="60" height="60" filterUnits="userSpaceOnUse" color-interpolation-filters="sRGB">
<feFlood flood-opacity="0" result="BackgroundImageFix"/>
<feGaussianBlur in="BackgroundImageFix" stdDeviation="5"/>
<feComposite in2="SourceAlpha" operator="in" result="effect1_backgroundBlur_0_8764"/>
<feBlend mode="normal" in="SourceGraphic" in2="effect1_backgroundBlur_0_8764" result="shape"/>
</filter>
<linearGradient id="paint0_linear_0_8764" x1="0" y1="0" x2="0" y2="40" gradientUnits="userSpaceOnUse">
<stop stop-color="white" stop-opacity="0.5"/>
<stop offset="1" stop-opacity="0.5"/>
</linearGradient>
</defs>
</svg>
