<svg width="40" height="40" viewBox="0 0 40 40" fill="none" xmlns="http://www.w3.org/2000/svg">
<g filter="url(#filter0_b_0_8753)">
<rect width="40" height="40" rx="12" fill="#0095D5" fill-opacity="0.24"/>
<rect width="40" height="40" rx="12" fill="url(#paint0_linear_0_8753)" fill-opacity="0.16"/>
</g>
<path d="M10.0001 13C12.5004 14.4546 15.0011 15.9086 17.5007 17.3643C17.4987 18.3339 17.5007 19.3032 17.4997 20.2729C15.8341 19.3012 14.1664 18.3336 12.5004 17.3629C12.4998 19.3022 12.5001 21.2418 12.5001 23.1811C11.6671 22.6955 10.8328 22.2121 10.0001 21.7255C10.0001 18.8172 9.99981 15.9086 10.0001 13Z" fill="#00B0FF"/>
<path d="M17.5 23.1852L17.5067 23.1899C17.8347 23.406 18.1843 23.5883 18.521 23.791C19.0063 24.0692 19.4843 24.3619 19.975 24.6301C20.824 25.1037 21.6579 25.6058 22.5009 26.0911C22.4993 27.0607 22.5009 28.0304 22.5003 29C20.8343 28.0287 19.167 27.0604 17.5003 26.0904C17.5 25.1218 17.5007 24.1535 17.5 23.1852Z" fill="#00B0FF"/>
<path d="M17.501 17.3642C20.0006 15.9099 22.5009 14.4563 24.9999 13.001C25.0006 15.9099 25.0002 18.8189 24.9999 21.7281C23.3669 22.6783 21.7336 23.6282 20.1013 24.579C20.06 24.5971 20.0243 24.6404 19.975 24.63C19.4843 24.3619 19.0063 24.0692 18.521 23.7909C18.1843 23.5882 17.8347 23.406 17.5067 23.1898C17.835 22.9733 18.1867 22.7904 18.524 22.587C19.8493 21.8157 21.1749 21.0455 22.4999 20.2732C22.5003 19.3038 22.5009 18.3345 22.4996 17.3652C20.833 18.3342 19.1673 19.3049 17.5 20.2728C17.501 19.3032 17.499 18.3339 17.501 17.3642Z" fill="#0081CB"/>
<path d="M27.5008 14.4543C28.3351 13.9723 29.1664 13.485 29.9998 13.001C30.0001 13.9706 30.0008 14.9403 29.9994 15.9103C29.1668 16.3949 28.3345 16.8809 27.5005 17.3632C27.5001 16.3936 27.4995 15.4239 27.5008 14.4543Z" fill="#0081CB"/>
<path d="M27.5 20.2735C28.3334 19.7888 29.1673 19.3045 30 18.8185C29.9997 20.7584 30.001 22.6984 29.999 24.638C27.499 26.0917 25.0004 27.5473 22.5001 28.9999C22.5008 28.0303 22.4991 27.0606 22.5008 26.091C24.1677 25.122 25.8347 24.1531 27.5 23.1814C27.5 22.2121 27.5 21.2428 27.5 20.2735Z" fill="#0081CB"/>
<defs>
<filter id="filter0_b_0_8753" x="-10" y="-10" width="60" height="60" filterUnits="userSpaceOnUse" color-interpolation-filters="sRGB">
<feFlood flood-opacity="0" result="BackgroundImageFix"/>
<feGaussianBlur in="BackgroundImageFix" stdDeviation="5"/>
<feComposite in2="SourceAlpha" operator="in" result="effect1_backgroundBlur_0_8753"/>
<feBlend mode="normal" in="SourceGraphic" in2="effect1_backgroundBlur_0_8753" result="shape"/>
</filter>
<linearGradient id="paint0_linear_0_8753" x1="0" y1="0" x2="0" y2="40" gradientUnits="userSpaceOnUse">
<stop stop-color="white" stop-opacity="0.5"/>
<stop offset="1" stop-opacity="0.5"/>
</linearGradient>
</defs>
</svg>
