<svg width="24" height="24" viewBox="0 0 24 24" fill="none" xmlns="http://www.w3.org/2000/svg">
<path d="M16.8125 2.83333H15.6666V1.91666C15.6666 1.41067 15.2569 1 14.75 1C14.2431 1 13.8333 1.41067 13.8333 1.91666V2.83333H6.49999V1.91666C6.49999 1.41067 6.09024 1 5.58332 1C5.07641 1 4.66666 1.41067 4.66666 1.91666V2.83333H3.52083C2.13025 2.83333 1 3.96358 1 5.35416V15.6666C1 17.1828 2.23383 18.4166 3.74999 18.4166H8.33332C8.84023 18.4166 9.24998 18.006 9.24998 17.5C9.24998 16.994 8.84023 16.5833 8.33332 16.5833H3.74999C3.244 16.5833 2.83333 16.1717 2.83333 15.6666V8.33332H17.5C17.5 8.83932 17.9097 9.24998 18.4166 9.24998C18.9235 9.24998 19.3333 8.83932 19.3333 8.33332V5.35416C19.3333 3.96358 18.2031 2.83333 16.8125 2.83333Z" fill="#637381"/>
<path opacity="0.48" d="M17.0413 11.0834C13.756 11.0834 11.083 13.7564 11.083 17.0417C11.083 20.327 13.756 23 17.0413 23C20.3266 23 22.9996 20.327 22.9996 17.0417C22.9996 13.7564 20.3266 11.0834 17.0413 11.0834ZM19.7968 16.0379L16.8177 19.4754C16.6508 19.6679 16.4116 19.7816 16.1577 19.7917C16.1467 19.7917 16.1357 19.7917 16.1247 19.7917C15.8817 19.7917 15.6489 19.6954 15.4766 19.5231L13.8724 17.9189C13.514 17.5605 13.514 16.9812 13.8724 16.6228C14.2308 16.2644 14.8102 16.2644 15.1686 16.6228L16.077 17.5312L18.4108 14.838C18.7426 14.4549 19.322 14.4155 19.7042 14.7455C20.0865 15.0764 20.1277 15.6557 19.7968 16.0379V16.0379Z" fill="#637381"/>
</svg>
