<svg width="24" height="24" viewBox="0 0 24 24" fill="none" xmlns="http://www.w3.org/2000/svg">
<g id="icon/navbar/ic_components">
<path id="Combined Shape" fill-rule="evenodd" clip-rule="evenodd" d="M10.5536 2.9661C10.963 2.29613 11.9361 2.29613 12.3455 2.9661L16.2483 9.35249C16.6759 10.0522 16.1723 10.95 15.3523 10.95H7.54677C6.72679 10.95 6.22324 10.0522 6.65082 9.35249L10.5536 2.9661ZM17.2246 22.5C19.8341 22.5 21.9496 20.3846 21.9496 17.775C21.9496 15.1655 19.8341 13.05 17.2246 13.05C14.615 13.05 12.4996 15.1655 12.4996 17.775C12.4996 20.3846 14.615 22.5 17.2246 22.5Z" fill="#637381"/>
<path id="Path" opacity="0.48" d="M2 15.075C2 14.2465 2.67157 13.575 3.5 13.575H8.9C9.72843 13.575 10.4 14.2465 10.4 15.075V20.475C10.4 21.3034 9.72843 21.975 8.9 21.975H3.5C2.67157 21.975 2 21.3034 2 20.475V15.075Z" fill="#637381"/>
</g>
</svg>
