<svg width="24" height="24" viewBox="0 0 24 24" fill="none" xmlns="http://www.w3.org/2000/svg">
<g id="icon/navbar/ic_dashboard">
<path id="Path" d="M20.3805 8.57L19.1505 10.42C20.3554 12.8231 20.2727 15.6708 18.9305 18H5.07046C3.30696 14.9407 3.75785 11.087 6.17994 8.51743C8.60203 5.94784 12.4224 5.27021 15.5805 6.85L17.4305 5.62C13.5543 3.13444 8.48186 3.61706 5.14395 6.78901C1.80605 9.96097 1.06562 15.0022 3.35046 19C3.70557 19.6151 4.36024 19.9957 5.07046 20H18.9205C19.6378 20.0028 20.3018 19.6213 20.6605 19C22.5391 15.7457 22.4348 11.7129 20.3905 8.56L20.3805 8.57Z" fill="#637381"/>
<path id="Path_2" opacity="0.48" d="M10.5905 15.41C10.9656 15.7856 11.4747 15.9966 12.0055 15.9966C12.5363 15.9966 13.0453 15.7856 13.4205 15.41L19.0805 6.92004L10.5905 12.58C10.2149 12.9552 10.0039 13.4642 10.0039 13.995C10.0039 14.5259 10.2149 15.0349 10.5905 15.41V15.41Z" fill="#637381"/>
</g>
</svg>
