<svg width="24" height="24" viewBox="0 0 24 24" fill="none" xmlns="http://www.w3.org/2000/svg">
<g id="icon/navbar/ic_error">
<path id="Path" d="M22.7126 10.2985C22.9565 10.0608 22.9796 9.67656 22.7658 9.41144C22.552 9.14632 22.1715 9.08743 21.8876 9.2755C20.6577 10.2485 19.2002 10.8921 17.6526 11.1455V10.6175C17.6397 9.82571 17.3823 9.05727 16.9156 8.4175C18.1326 7.15628 18.8145 5.47315 18.8186 3.7205C18.8186 3.35295 18.5206 3.055 18.1531 3.055C17.7855 3.055 17.4876 3.35295 17.4876 3.7205C17.4596 5.10606 16.9096 6.42998 15.9476 7.4275L15.8376 7.3505C15.6853 5.33686 14.007 3.78074 11.9876 3.78074C9.96818 3.78074 8.28991 5.33686 8.13758 7.3505L8.02758 7.4275C7.05267 6.41617 6.50166 5.07015 6.48758 3.6655C6.48758 3.29795 6.18963 3 5.82208 3C5.45454 3 5.15658 3.29795 5.15658 3.6655C5.16065 5.41815 5.84257 7.10128 7.05958 8.3625C6.59289 9.00227 6.33546 9.77071 6.32258 10.5625V11.0905C4.78171 10.8616 3.32436 10.2446 2.08758 9.2975C1.90484 9.1462 1.65526 9.10388 1.43286 9.18649C1.21046 9.2691 1.04902 9.46408 1.00936 9.69799C0.969698 9.9319 1.05784 10.1692 1.24058 10.3205C2.70275 11.4888 4.4489 12.248 6.30058 12.5205V14.4455C4.53018 16.0402 3.51883 18.3108 3.51758 20.6935C3.51758 21.061 3.81554 21.359 4.18308 21.359C4.55063 21.359 4.84858 21.061 4.84858 20.6935C4.85385 19.135 5.37615 17.6223 6.33358 16.3925C6.44878 19.2351 8.6774 21.5394 11.5146 21.7495V7.1305C11.4863 6.94636 11.5687 6.76274 11.7251 6.66151C11.8815 6.56027 12.0827 6.56027 12.2391 6.66151C12.3955 6.76274 12.4779 6.94636 12.4496 7.1305V21.7495C15.2738 21.5236 17.4841 19.2235 17.5976 16.3925C18.555 17.6223 19.0773 19.135 19.0826 20.6935C19.0826 20.9313 19.2094 21.151 19.4153 21.2698C19.6212 21.3887 19.8749 21.3887 20.0808 21.2698C20.2867 21.151 20.4136 20.9313 20.4136 20.6935C20.4123 18.3108 19.401 16.0402 17.6306 14.4455V12.5095C19.4905 12.2355 21.2443 11.4725 22.7126 10.2985Z" fill="#637381"/>
</g>
</svg>
