<svg width="24" height="24" viewBox="0 0 24 24" fill="none" xmlns="http://www.w3.org/2000/svg">
<g id="icon/navbar/ic_elements">
<path id="Path" d="M3.2403 7.29003L11.7603 11.92C11.9103 12 12.0903 12 12.2403 11.92L20.7603 7.29003C20.9192 7.21154 21.0156 7.04534 21.0046 6.86841C20.9937 6.69148 20.8777 6.53838 20.7103 6.48003L12.1903 3.00003C12.0686 2.95002 11.932 2.95002 11.8103 3.00003L3.2903 6.48003C3.12291 6.53838 3.00688 6.69148 2.99596 6.86841C2.98504 7.04534 3.08135 7.21154 3.2403 7.29003Z" fill="#637381"/>
<path id="Path_2" d="M20.7101 10.66L18.8801 9.88L12.2401 13.49C12.0901 13.57 11.9101 13.57 11.7601 13.49L5.1201 9.88L3.2901 10.66C3.13214 10.7429 3.0332 10.9066 3.0332 11.085C3.0332 11.2634 3.13214 11.4271 3.2901 11.51L11.8101 16.41C11.9574 16.5001 12.1428 16.5001 12.2901 16.41L20.8101 11.51C20.9605 11.4099 21.042 11.2338 21.0209 11.0543C20.9998 10.8749 20.8797 10.7225 20.7101 10.66V10.66Z" fill="#637381"/>
<path id="Path_3" d="M20.7098 15.1L19.1498 14.42L12.2398 18.18C12.0898 18.26 11.9098 18.26 11.7598 18.18L4.84984 14.42L3.28984 15.1C3.12737 15.1843 3.02539 15.352 3.02539 15.535C3.02539 15.718 3.12737 15.8858 3.28984 15.97L11.8098 20.97C11.9598 21.05 12.1398 21.05 12.2898 20.97L20.8098 15.97C20.9648 15.8685 21.0493 15.6883 21.0281 15.5042C21.007 15.3201 20.8838 15.1638 20.7098 15.1Z" fill="#637381"/>
</g>
</svg>
