<svg width="24" height="24" viewBox="0 0 24 24" fill="none" xmlns="http://www.w3.org/2000/svg">
<g id="icon/navbar/ic_editor">
<path id="Path" opacity="0.48" d="M2.58594 5.51562C2.90953 5.51562 3.17188 5.25328 3.17188 4.92969V3.17188H4.92969C5.25328 3.17188 5.51562 2.90953 5.51562 2.58594C5.51562 2.26234 5.25328 2 4.92969 2H2.58594C2.26234 2 2 2.26234 2 2.58594V4.92969C2 5.25328 2.26234 5.51562 2.58594 5.51562Z" fill="#637381"/>
<path id="Path_2" opacity="0.48" d="M4.92969 20.8281H3.17188V19.0703C3.17188 18.7467 2.90953 18.4844 2.58594 18.4844C2.26234 18.4844 2 18.7467 2 19.0703V21.4141C2 21.7377 2.26234 22 2.58594 22H4.92969C5.25328 22 5.51562 21.7377 5.51562 21.4141C5.51562 21.0905 5.25328 20.8281 4.92969 20.8281Z" fill="#637381"/>
<path id="Path_3" opacity="0.48" d="M21.4141 18.4844C21.0905 18.4844 20.8281 18.7467 20.8281 19.0703V20.8281H19.0703C18.7467 20.8281 18.4844 21.0905 18.4844 21.4141C18.4844 21.7377 18.7467 22 19.0703 22H21.4141C21.7377 22 22 21.7377 22 21.4141V19.0703C22 18.7467 21.7377 18.4844 21.4141 18.4844Z" fill="#637381"/>
<path id="Path_4" opacity="0.48" d="M21.4141 2H19.0703C18.7467 2 18.4844 2.26234 18.4844 2.58594C18.4844 2.90953 18.7467 3.17188 19.0703 3.17188H20.8281V4.92969C20.8281 5.25328 21.0905 5.51562 21.4141 5.51562C21.7377 5.51562 22 5.25328 22 4.92969V2.58594C22 2.26234 21.7377 2 21.4141 2Z" fill="#637381"/>
<path id="Path_5" d="M18.3618 10.3626V6.54532C18.3618 6.24416 18.1176 6 17.8165 6H6.18301C5.88185 6 5.6377 6.24416 5.6377 6.54532V10.3626C5.6377 10.6637 5.88185 10.9079 6.18301 10.9079C6.48418 10.9079 6.72833 10.6637 6.72833 10.3626V9.81723C6.72833 9.51658 6.97296 9.27191 7.27365 9.27191H10.3638V16.9094H9.81847C9.51731 16.9094 9.27316 17.1535 9.27316 17.4547C9.27316 17.7558 9.51731 18 9.81847 18H14.181C14.4822 18 14.7263 17.7558 14.7263 17.4547C14.7263 17.1535 14.4822 16.9094 14.181 16.9094H13.6357V9.27191H16.7258C17.0265 9.27191 17.2712 9.51658 17.2712 9.81723V10.3626C17.2712 10.6637 17.5153 10.9079 17.8165 10.9079C18.1176 10.9079 18.3618 10.6637 18.3618 10.3626Z" fill="#637381"/>
</g>
</svg>
