<svg width="24" height="24" viewBox="0 0 24 24" fill="none" xmlns="http://www.w3.org/2000/svg">
<g id="icon/navbar/ic_language">
<path id="Combined Shape" fill-rule="evenodd" clip-rule="evenodd" d="M21.2259 8.8064H12.7097C11.7304 8.80757 10.9367 9.60122 10.9355 10.5806V18.387C10.9367 19.3664 11.7304 20.1601 12.7097 20.1612H17.571L20.3203 21.994C20.4292 22.066 20.5688 22.0725 20.6838 22.0108C20.7989 21.9492 20.8708 21.8293 20.871 21.6988V20.1612H21.2259C22.2052 20.1601 22.9989 19.3664 23.0001 18.387V10.5806C22.9989 9.60122 22.2052 8.80757 21.2259 8.8064ZM18.3233 16.9677L17.9372 15.7016H15.9984L15.6127 16.9677H14.3974L16.2748 11.6263H17.6541L19.5383 16.9677H18.3233ZM16.2819 14.7556C16.6602 13.5307 16.8895 12.763 16.9699 12.4524C16.9884 12.5394 17.0202 12.6582 17.0654 12.8086C17.1106 12.9591 17.3116 13.6081 17.6686 14.7556H16.2819Z" fill="#637381"/>
<path id="Combined Shape_2" opacity="0.48" fill-rule="evenodd" clip-rule="evenodd" d="M11.2903 1H2.77419C1.79482 1.00117 1.00117 1.79482 1 2.77419V10.5806C1.00117 11.56 1.79482 12.3537 2.77419 12.3548H3.12903V13.8924C3.12901 14.0233 3.20106 14.1435 3.31647 14.2053C3.43188 14.267 3.57192 14.2602 3.68081 14.1876L6.42903 12.3548H10.2258V10.5806C10.2276 9.20957 11.3386 8.09853 12.7097 8.09677H13.0645V2.77419C13.0633 1.79482 12.2697 1.00117 11.2903 1ZM9.42884 9.76168C8.52593 9.51058 7.67992 9.0877 6.93716 8.51619C6.17045 9.0925 5.30097 9.51748 4.37523 9.76842C4.25073 9.42142 4.06942 9.09754 3.83871 8.81C4.68473 8.64791 5.49031 8.32001 6.20903 7.84519C5.89675 7.50629 5.62643 7.13101 5.4039 6.72745C5.19405 6.35177 5.02887 5.95282 4.91174 5.53874H4.784C4.47742 5.53874 4.19 5.55152 3.93452 5.57671V4.58671C4.22496 4.62007 4.51722 4.63501 4.80955 4.63142H6.33003V4.22265C6.33104 4.07688 6.31832 3.93135 6.29206 3.78797H7.39703C7.37074 3.92919 7.35803 4.07261 7.35906 4.21626V4.63142H8.97536C9.26993 4.635 9.56443 4.62006 9.85713 4.58671V5.57742C9.57681 5.55041 9.29529 5.53774 9.01368 5.53945H8.86677C8.76841 5.97523 8.61333 6.39623 8.40548 6.79168C8.20517 7.1721 7.95845 7.52621 7.67097 7.8459C8.36939 8.31239 9.16063 8.62194 9.99019 8.75323C9.74667 9.05473 9.55679 9.39585 9.42884 9.76168ZM6.37474 6.50355C6.18916 6.20276 6.0452 5.8782 5.94681 5.53874L7.79977 5.53839C7.7193 5.87872 7.59023 6.20569 7.41655 6.50923C7.27864 6.76601 7.109 7.00444 6.91161 7.2189C6.70532 7.00225 6.52513 6.76216 6.37474 6.50355Z" fill="#637381"/>
</g>
</svg>
