<svg width="24" height="24" viewBox="0 0 24 24" fill="none" xmlns="http://www.w3.org/2000/svg">
<g id="icon/navbar/ic_page">
<path id="Shape" fill-rule="evenodd" clip-rule="evenodd" d="M15.3 2.33006L19.74 7.33006C19.9067 7.51346 19.9994 7.75222 20 8.00006V19.5001C19.9921 20.1711 19.7179 20.8115 19.2378 21.2803C18.7577 21.7492 18.111 22.0081 17.44 22.0001H6.56C5.88899 22.0081 5.24229 21.7492 4.76218 21.2803C4.28208 20.8115 4.00791 20.1711 4 19.5001V4.50006C4.00791 3.82905 4.28208 3.18866 4.76218 2.71981C5.24229 2.25096 5.88899 1.99205 6.56 2.00006H14.56C14.8422 2.00073 15.1109 2.12058 15.3 2.33006ZM14.5537 4.5923C14.3555 4.38025 14 4.52055 14 4.81085V7.15006C13.9835 7.36134 14.0526 7.57038 14.1918 7.73022C14.3309 7.89006 14.5285 7.98729 14.74 8.00006H17.0027C17.2826 8.00006 17.4276 7.66599 17.2365 7.46151L14.5537 4.5923Z" fill="#637381"/>
</g>
</svg>
