<svg width="40" height="40" viewBox="0 0 40 40" fill="none" xmlns="http://www.w3.org/2000/svg">
<path d="M32.3833 21.6333C32.45 21.1 32.5 20.5666 32.5 20C32.5 19.4333 32.45 18.9 32.3833 18.3666L35.9 15.6166C36.2166 15.3666 36.3 14.9166 36.1 14.55L32.7666 8.78331C32.5666 8.41665 32.1166 8.28331 31.75 8.41665L27.6 10.0833C26.7333 9.41665 25.8 8.86665 24.7833 8.44998L24.15 4.03331C24.1 3.63331 23.75 3.33331 23.3333 3.33331H16.6666C16.25 3.33331 15.9 3.63331 15.85 4.03331L15.2166 8.44998C14.2 8.86665 13.2666 9.43331 12.4 10.0833L8.24998 8.41665C7.86664 8.26665 7.43331 8.41665 7.23331 8.78331L3.89998 14.55C3.68331 14.9166 3.78331 15.3666 4.09998 15.6166L7.61664 18.3666C7.54998 18.9 7.49998 19.45 7.49998 20C7.49998 20.55 7.54998 21.1 7.61664 21.6333L4.09998 24.3833C3.78331 24.6333 3.69998 25.0833 3.89998 25.45L7.23331 31.2166C7.43331 31.5833 7.88331 31.7166 8.24998 31.5833L12.4 29.9166C13.2666 30.5833 14.2 31.1333 15.2166 31.55L15.85 35.9666C15.9 36.3666 16.25 36.6666 16.6666 36.6666H23.3333C23.75 36.6666 24.1 36.3666 24.15 35.9666L24.7833 31.55C25.8 31.1333 26.7333 30.5666 27.6 29.9166L31.75 31.5833C32.1333 31.7333 32.5666 31.5833 32.7666 31.2166L36.1 25.45C36.3 25.0833 36.2166 24.6333 35.9 24.3833L32.3833 21.6333ZM20 25.8333C16.7833 25.8333 14.1666 23.2166 14.1666 20C14.1666 16.7833 16.7833 14.1666 20 14.1666C23.2166 14.1666 25.8333 16.7833 25.8333 20C25.8333 23.2166 23.2166 25.8333 20 25.8333Z" fill="#828282"/>
</svg>
