<svg width="28" height="28" viewBox="0 0 28 28" fill="none" xmlns="http://www.w3.org/2000/svg">
<path fill-rule="evenodd" clip-rule="evenodd" d="M17.4592 16.6308H18.3808L24.2025 22.4642L22.4642 24.2025L16.6308 18.3808V17.4592L16.3158 17.1325C14.9858 18.2758 13.2592 18.9642 11.3808 18.9642C7.19249 18.9642 3.79749 15.5692 3.79749 11.3808C3.79749 7.19249 7.19249 3.79749 11.3808 3.79749C15.5692 3.79749 18.9642 7.19249 18.9642 11.3808C18.9642 13.2592 18.2758 14.9858 17.1325 16.3158L17.4592 16.6308ZM6.13082 11.3808C6.13082 14.2858 8.47582 16.6308 11.3808 16.6308C14.2858 16.6308 16.6308 14.2858 16.6308 11.3808C16.6308 8.47583 14.2858 6.13083 11.3808 6.13083C8.47582 6.13083 6.13082 8.47583 6.13082 11.3808Z" fill="black" fill-opacity="0.4"/>
</svg>
