<svg width="24" height="24" viewBox="0 0 24 24" fill="none" xmlns="http://www.w3.org/2000/svg">
<path d="M12 22C8.77086 22.0784 6.08724 19.5289 6 16.3V6.13002C6.06003 3.79598 7.99573 1.94968 10.33 2.00002C12.6681 1.94409 14.61 3.79199 14.67 6.13002V16.31C14.5837 17.7185 13.4162 18.8167 12.005 18.8167C10.5938 18.8167 9.42632 17.7185 9.34 16.31V6.92002C9.34 6.36773 9.78772 5.92002 10.34 5.92002C10.8923 5.92002 11.34 6.36773 11.34 6.92002V16.31C11.3813 16.6459 11.6666 16.8983 12.005 16.8983C12.3434 16.8983 12.6287 16.6459 12.67 16.31V6.13002C12.6053 4.89883 11.5618 3.949 10.33 4.00002C9.10199 3.95462 8.0647 4.90287 8 6.13002V16.3C8.08667 18.4245 9.87517 20.0789 12 20C14.1248 20.0789 15.9133 18.4245 16 16.3V6.13002C16 5.57773 16.4477 5.13002 17 5.13002C17.5523 5.13002 18 5.57773 18 6.13002V16.3C17.9128 19.5289 15.2291 22.0784 12 22Z" fill="#212B36"/>
</svg>
