<svg width="24" height="24" viewBox="0 0 24 24" fill="none" xmlns="http://www.w3.org/2000/svg">
<path d="M8 12C8 12.5523 8.44772 13 9 13H15C15.5523 13 16 12.5523 16 12C16 11.4477 15.5523 11 15 11H9C8.44772 11 8 11.4477 8 12Z" fill="#212B36"/>
<path d="M9.00032 15.9999H7.21032C5.08082 16.0568 3.25746 14.4846 3.00032 12.3699C2.89595 11.2466 3.27083 10.1314 4.03259 9.29915C4.79434 8.46694 5.87212 7.99511 7.00032 7.99995H9.00032C9.5526 7.99995 10.0003 7.55223 10.0003 6.99995C10.0003 6.44766 9.5526 5.99995 9.00032 5.99995H7.21032C4.1456 5.95899 1.51852 8.18092 1.05032 11.2099C0.822611 12.9243 1.34572 14.6536 2.48551 15.9543C3.62529 17.255 5.27089 18.0006 7.00032 17.9999H9.00032C9.5526 17.9999 10.0003 17.5522 10.0003 16.9999C10.0003 16.4477 9.5526 15.9999 9.00032 15.9999V15.9999Z" fill="#212B36"/>
<path d="M23 11.24C22.5373 8.17062 19.8631 5.925 16.76 5.99999H15.25C14.44 5.99999 14 6.44999 14 6.99999C14 7.55228 14.4477 7.99999 15 7.99999H16.79C18.9195 7.94315 20.7429 9.51531 21 11.63C21.1044 12.7534 20.7295 13.8686 19.9677 14.7008C19.206 15.533 18.1282 16.0048 17 16H15C14.4477 16 14 16.4477 14 17C14 17.5523 14.4477 18 15 18H17C18.7322 18.014 20.3859 17.2786 21.5357 15.9831C22.6856 14.6875 23.2195 12.9583 23 11.24Z" fill="#212B36"/>
</svg>
