<svg width="24" height="25" viewBox="0 0 24 25" fill="none" xmlns="http://www.w3.org/2000/svg">
<path fill-rule="evenodd" clip-rule="evenodd" d="M15.3893 1.43319L14.4132 2.70489C16.0293 3.61502 17.1627 5.28128 17.3239 7.22732H5.89348C6.05465 5.28128 7.18813 3.61502 8.80417 2.70536L7.82804 1.43367C7.7477 1.32893 7.7673 1.17876 7.87204 1.09841C7.97774 1.01854 8.12743 1.03815 8.2073 1.14241L9.23796 2.48489C9.96109 2.15536 10.7617 1.96645 11.6087 1.96645C12.4557 1.96645 13.2563 2.15536 13.9794 2.48441L15.0101 1.14193C15.0904 1.03767 15.2406 1.01663 15.3453 1.09793C15.4501 1.17828 15.4697 1.32845 15.3893 1.43319ZM8.97826 5.31428C9.37446 5.31428 9.69565 4.99309 9.69565 4.59689C9.69565 4.20068 9.37446 3.87949 8.97826 3.87949C8.58206 3.87949 8.26087 4.20068 8.26087 4.59689C8.26087 4.99309 8.58206 5.31428 8.97826 5.31428ZM14.9565 4.59689C14.9565 4.99309 14.6353 5.31428 14.2391 5.31428C13.8429 5.31428 13.5217 4.99309 13.5217 4.59689C13.5217 4.20068 13.8429 3.87949 14.2391 3.87949C14.6353 3.87949 14.9565 4.20068 14.9565 4.59689ZM3 14.1621C3 14.8226 3.53517 15.3578 4.19565 15.3578C4.85613 15.3578 5.3913 14.8226 5.3913 14.1621V8.90123C5.3913 8.24076 4.85613 7.70558 4.19565 7.70558C3.53517 7.70558 3 8.24076 3 8.90123V14.1621ZM17.8261 14.1621C17.8261 14.8226 18.3613 15.3578 19.0217 15.3578C19.6822 15.3578 20.2174 14.8226 20.2174 14.1621V8.90123C20.2174 8.24076 19.6822 7.70558 19.0217 7.70558C18.3613 7.70558 17.8261 8.24076 17.8261 8.90123V14.1621ZM5.86957 7.70558V17.7491C5.86957 18.2775 6.29761 18.7056 6.82609 18.7056H7.78261V21.8143C7.78261 22.4748 8.31778 23.0099 8.97826 23.0099C9.63874 23.0099 10.1739 22.4748 10.1739 21.8143V18.7056H13.0435V21.8143C13.0435 22.4748 13.5787 23.0099 14.2391 23.0099C14.8996 23.0099 15.4348 22.4748 15.4348 21.8143V18.7056H16.3913C16.9198 18.7056 17.3478 18.2775 17.3478 17.7491V7.70558H5.86957Z" fill="#212B36"/>
</svg>
