<svg width="24" height="25" viewBox="0 0 24 25" fill="none" xmlns="http://www.w3.org/2000/svg">
<path fill-rule="evenodd" clip-rule="evenodd" d="M16.8464 0.0098877C16.8464 0.0098877 14.6542 0.0199521 13.0772 2.09827C11.6747 3.94666 12.0316 5.52757 12.0316 5.52757C12.0316 5.52757 13.9331 5.85621 15.6057 3.8464C17.1723 1.96395 16.8464 0.0098877 16.8464 0.0098877ZM13.4903 6.51736C12.9742 6.7254 12.5502 6.89634 12.2325 6.89634C11.8365 6.89634 11.3588 6.71233 10.8037 6.49854C10.0339 6.20204 9.1154 5.84824 8.05965 5.84847C5.26326 5.84847 2.28223 8.35221 2.28223 13.1247C2.28223 17.9754 5.80403 24.0103 8.5919 24.0103C9.02562 24.0103 9.56284 23.8156 10.1584 23.5998C10.8992 23.3313 11.7302 23.0301 12.5647 23.0301C13.3129 23.0301 13.9619 23.2726 14.6024 23.5118C15.2265 23.7449 15.8425 23.975 16.5344 23.975C19.5874 23.975 21.8476 17.6131 21.8476 17.6131C21.8476 17.6131 18.6142 16.3612 18.6142 12.7287C18.6142 9.50847 21.2097 8.1815 21.2097 8.1815C21.2097 8.1815 19.8827 5.78111 16.5092 5.78111C15.3166 5.78111 14.2923 6.19404 13.4903 6.51736Z" fill="#212B36"/>
</svg>
