<svg width="24" height="24" viewBox="0 0 24 24" fill="none" xmlns="http://www.w3.org/2000/svg">
<path d="M7.34375 7.0625H17.0938C17.1969 7.0625 17.2812 6.97812 17.2812 6.875C17.2812 5.9375 17.075 5.07734 16.6742 4.34141C16.2711 3.60313 15.6781 3.01016 14.9398 2.60703C14.2039 2.20625 13.3438 2 12.4062 2H12.0312C11.0938 2 10.2336 2.20625 9.49766 2.60703C8.75938 3.01016 8.16641 3.60313 7.76328 4.34141C7.3625 5.07734 7.15625 5.9375 7.15625 6.875C7.15625 6.97812 7.24063 7.0625 7.34375 7.0625Z" fill="#212B36"/>
<path d="M22.25 12.5H18.7812V10.1562C20.5812 10.1562 22.0391 8.69844 22.0391 6.89844C22.0391 6.79531 21.9547 6.71094 21.8516 6.71094H20.4453C20.3422 6.71094 20.2578 6.79531 20.2578 6.89844C20.2578 7.71406 19.5969 8.375 18.7812 8.375H5.65625C4.84062 8.375 4.17969 7.71406 4.17969 6.89844C4.17969 6.79531 4.09531 6.71094 3.99219 6.71094H2.58594C2.48281 6.71094 2.39844 6.79531 2.39844 6.89844C2.39844 8.69844 3.85625 10.1562 5.65625 10.1562V12.5H2.1875C2.08438 12.5 2 12.5844 2 12.6875V14C2 14.1031 2.08438 14.1875 2.1875 14.1875H5.65625V16.4375C5.65625 16.5898 5.66094 16.7422 5.67266 16.8898C4.06484 17.5766 2.9375 19.1727 2.9375 21.0312C2.9375 21.1344 3.02188 21.2188 3.125 21.2188H4.4375C4.54062 21.2188 4.625 21.1344 4.625 21.0312C4.625 19.9953 5.18516 19.0883 6.02187 18.6008C6.1625 19.0039 6.34063 19.3883 6.55391 19.7492C7.12344 20.7219 7.93672 21.5352 8.90938 22.1047C9.58672 22.5008 10.3391 22.7797 11.143 22.9133C11.2461 22.9133 11.3305 22.8289 11.3305 22.7258V11.8438C11.3305 11.7406 11.4148 11.6562 11.518 11.6562H12.9242C13.0273 11.6562 13.1117 11.7406 13.1117 11.8438V22.7234C13.1117 22.8266 13.1961 22.9109 13.2992 22.9109C14.1031 22.7773 14.8555 22.4984 15.5328 22.1023C16.5055 21.5328 17.3187 20.7195 17.8883 19.7469C18.1016 19.3836 18.2797 18.9992 18.4203 18.5984C19.2523 19.0883 19.8125 19.9953 19.8125 21.0312C19.8125 21.1344 19.8969 21.2188 20 21.2188H21.3125C21.4156 21.2188 21.5 21.1344 21.5 21.0312C21.5 19.1727 20.3727 17.5766 18.7648 16.8898C18.7742 16.7398 18.7812 16.5898 18.7812 16.4375V14.1875H22.25C22.3531 14.1875 22.4375 14.1031 22.4375 14V12.6875C22.4375 12.5844 22.3531 12.5 22.25 12.5Z" fill="#212B36"/>
</svg>
