<svg width="24" height="25" viewBox="0 0 24 25" fill="none" xmlns="http://www.w3.org/2000/svg">
<path d="M20.9523 10.8368C21.6765 10.8368 21.9789 9.90637 21.3906 9.47747L12.4398 2.96653C12.312 2.87288 12.1576 2.82239 11.9992 2.82239C11.8407 2.82239 11.6864 2.87288 11.5585 2.96653L2.60776 9.47747C2.01948 9.90403 2.32182 10.8368 3.04839 10.8368H4.49917V19.6025H2.81167C2.70854 19.6025 2.62417 19.6868 2.62417 19.79V21.0087C2.62417 21.1118 2.70854 21.1962 2.81167 21.1962H21.1867C21.2898 21.1962 21.3742 21.1118 21.3742 21.0087V19.79C21.3742 19.6868 21.2898 19.6025 21.1867 19.6025H19.4992V10.8368H20.9523ZM8.92886 19.6025H6.18667V10.8368H8.92886V19.6025ZM13.3585 19.6025H10.6164V10.8368H13.3585V19.6025ZM17.8117 19.6025H15.046V10.8368H17.8117V19.6025Z" fill="#212B36"/>
</svg>
