<svg width="24" height="24" viewBox="0 0 24 24" fill="none" xmlns="http://www.w3.org/2000/svg">
<path fill-rule="evenodd" clip-rule="evenodd" d="M5.08824 2.5H19.5C21.2056 2.5 22.5882 3.88265 22.5882 5.58824V15.8824C22.5882 17.5879 21.2056 18.9706 19.5 18.9706H8.74265C8.54396 18.9629 8.34732 19.013 8.17647 19.1147L3.55441 21.9147C3.39552 22.009 3.21417 22.0588 3.02941 22.0588C2.85257 22.0583 2.67885 22.0122 2.525 21.925C2.20126 21.743 2.00064 21.4008 2 21.0294V5.58824C2 3.88265 3.38265 2.5 5.08824 2.5ZM7.14706 10.7353C7.14706 11.3038 7.60794 11.7647 8.17647 11.7647C8.745 11.7647 9.20588 11.3038 9.20588 10.7353C9.20588 10.1668 8.745 9.70588 8.17647 9.70588C7.60794 9.70588 7.14706 10.1668 7.14706 10.7353ZM12.2941 11.7647C11.7256 11.7647 11.2647 11.3038 11.2647 10.7353C11.2647 10.1668 11.7256 9.70588 12.2941 9.70588C12.8626 9.70588 13.3235 10.1668 13.3235 10.7353C13.3235 11.3038 12.8626 11.7647 12.2941 11.7647ZM15.3824 10.7353C15.3824 11.3038 15.8432 11.7647 16.4118 11.7647C16.9803 11.7647 17.4412 11.3038 17.4412 10.7353C17.4412 10.1668 16.9803 9.70588 16.4118 9.70588C15.8432 9.70588 15.3824 10.1668 15.3824 10.7353Z" fill="#212B36"/>
</svg>
