<svg width="24" height="25" viewBox="0 0 24 25" fill="none" xmlns="http://www.w3.org/2000/svg">
<path d="M17.4 22.0099C8.89938 21.9989 2.01102 15.1105 2 6.60988C2 4.06937 4.05949 2.00988 6.6 2.00988C6.85834 2.00791 7.11625 2.03136 7.37 2.07988C7.61531 2.11618 7.85647 2.17647 8.09 2.25988C8.42419 2.37714 8.67143 2.66242 8.74 3.00988L10.11 9.00988C10.185 9.3408 10.0871 9.68719 9.85 9.92988C9.72 10.0699 9.71 10.0799 8.48 10.7199C9.46499 12.8807 11.1932 14.616 13.35 15.6099C14 14.3699 14.01 14.3599 14.15 14.2299C14.3927 13.9927 14.7391 13.8948 15.07 13.9699L21.07 15.3399C21.4061 15.4179 21.6782 15.6635 21.79 15.9899C21.8744 16.2272 21.938 16.4715 21.98 16.7199C22.0202 16.9712 22.0403 17.2254 22.04 17.4799C22.0016 20.0087 19.929 22.0322 17.4 22.0099V22.0099Z" fill="#212B36"/>
</svg>
