<svg width="24" height="24" viewBox="0 0 24 24" fill="none" xmlns="http://www.w3.org/2000/svg">
<path d="M12.0003 16.0001C11.7666 16.0005 11.5402 15.9191 11.3603 15.7701L5.3603 10.7701C4.93504 10.4166 4.87684 9.78531 5.2303 9.36005C5.58376 8.9348 6.21504 8.87659 6.6403 9.23005L12.0003 13.7101L17.3603 9.39005C17.5669 9.22228 17.8318 9.14379 18.0965 9.17194C18.3611 9.20009 18.6036 9.33257 18.7703 9.54005C18.9554 9.74791 19.0456 10.0235 19.019 10.3006C18.9924 10.5777 18.8516 10.8312 18.6303 11.0001L12.6303 15.8301C12.4452 15.9556 12.2234 16.0154 12.0003 16.0001Z" fill="#212B36"/>
</svg>
