<svg width="24" height="24" viewBox="0 0 24 24" fill="none" xmlns="http://www.w3.org/2000/svg">
<path fill-rule="evenodd" clip-rule="evenodd" d="M16.6997 8.70997L21.2897 4.11997C21.6797 3.72997 21.6797 3.09997 21.2997 2.69997C20.9097 2.30997 20.2797 2.30997 19.8897 2.69997L15.2997 7.28997L13.7097 5.69997C13.0797 5.06997 11.9997 5.51997 11.9997 6.40997V11.01C11.9997 11.56 12.4497 12.01 12.9997 12.01H17.5797C18.4697 12.01 18.9197 10.93 18.2897 10.3L16.6997 8.70997ZM8.70973 16.7L4.11973 21.29C3.72973 21.68 3.09973 21.68 2.69973 21.3C2.30973 20.91 2.30973 20.28 2.69973 19.89L7.28973 15.3L5.69973 13.71C5.06973 13.08 5.51973 12 6.40973 12H11.0097C11.5597 12 12.0097 12.45 12.0097 13V17.58C12.0097 18.47 10.9297 18.92 10.2997 18.29L8.70973 16.7Z" fill="#212B36"/>
</svg>
