<svg width="25" height="25" viewBox="0 0 25 25" fill="none" xmlns="http://www.w3.org/2000/svg">
<path d="M13.4158 12.0041L17.7158 7.71409C18.1079 7.32197 18.1079 6.68621 17.7158 6.29409C17.3237 5.90197 16.6879 5.90197 16.2958 6.29409L12.0058 10.5941L7.7158 6.29409C7.32368 5.90197 6.68792 5.90197 6.2958 6.29409C5.90368 6.68621 5.90368 7.32197 6.2958 7.71409L10.5958 12.0041L6.2958 16.2941C6.10649 16.4819 6 16.7375 6 17.0041C6 17.2707 6.10649 17.5263 6.2958 17.7141C6.48356 17.9034 6.73916 18.0099 7.0058 18.0099C7.27244 18.0099 7.52803 17.9034 7.7158 17.7141L12.0058 13.4141L16.2958 17.7141C16.4836 17.9034 16.7392 18.0099 17.0058 18.0099C17.2724 18.0099 17.528 17.9034 17.7158 17.7141C17.9051 17.5263 18.0116 17.2707 18.0116 17.0041C18.0116 16.7375 17.9051 16.4819 17.7158 16.2941L13.4158 12.0041Z" fill="#212B36"/>
</svg>
