<svg width="24" height="24" viewBox="0 0 24 24" fill="none" xmlns="http://www.w3.org/2000/svg">
<path d="M17.71 6.28994C17.617 6.19621 17.5064 6.12182 17.3846 6.07105C17.2627 6.02028 17.132 5.99414 17 5.99414C16.868 5.99414 16.7373 6.02028 16.6154 6.07105C16.4936 6.12182 16.383 6.19621 16.29 6.28994L8 14.5899V8.99994C8 8.73472 7.89464 8.48037 7.70711 8.29283C7.51957 8.1053 7.26522 7.99994 7 7.99994C6.73478 7.99994 6.48043 8.1053 6.29289 8.29283C6.10536 8.48037 6 8.73472 6 8.99994V16.9999C6 17.2652 6.10536 17.5195 6.29289 17.707C6.48043 17.8946 6.73478 17.9999 7 17.9999H15C15.2652 17.9999 15.5196 17.8946 15.7071 17.707C15.8946 17.5195 16 17.2652 16 16.9999C16 16.7347 15.8946 16.4804 15.7071 16.2928C15.5196 16.1053 15.2652 15.9999 15 15.9999H9.41L17.71 7.70994C17.8037 7.61698 17.8781 7.50638 17.9289 7.38452C17.9797 7.26266 18.0058 7.13195 18.0058 6.99994C18.0058 6.86793 17.9797 6.73722 17.9289 6.61536C17.8781 6.4935 17.8037 6.3829 17.71 6.28994V6.28994Z" fill="#212B36"/>
</svg>
