<svg width="24" height="25" viewBox="0 0 24 25" fill="none" xmlns="http://www.w3.org/2000/svg">
<rect x="4" y="18.0099" width="16" height="2" rx="1" fill="#212B36"/>
<rect x="4" y="20.0099" width="4" height="2" rx="1" transform="rotate(-90 4 20.0099)" fill="#212B36"/>
<rect x="18" y="20.0099" width="4" height="2" rx="1" transform="rotate(-90 18 20.0099)" fill="#212B36"/>
<path d="M11.9995 15.0099C11.7922 15.0115 11.5895 14.9486 11.4195 14.8299L7.41954 12.0099C6.97073 11.6916 6.86347 11.0704 7.17954 10.6199C7.33261 10.4015 7.56662 10.2533 7.82952 10.2082C8.09243 10.1631 8.36245 10.225 8.57954 10.3799L11.9995 12.7699L15.3995 10.2099C15.8414 9.87858 16.4682 9.96812 16.7995 10.4099C17.1309 10.8518 17.0414 11.4786 16.5995 11.8099L12.5995 14.8099C12.4264 14.9398 12.2159 15.0099 11.9995 15.0099V15.0099Z" fill="#212B36"/>
<path d="M12 13.0099C11.4477 13.0099 11 12.5622 11 12.0099V4.00989C11 3.4576 11.4477 3.00989 12 3.00989C12.5523 3.00989 13 3.4576 13 4.00989V12.0099C13 12.5622 12.5523 13.0099 12 13.0099Z" fill="#212B36"/>
</svg>
