<svg width="24" height="24" viewBox="0 0 24 24" fill="none" xmlns="http://www.w3.org/2000/svg">
<path d="M16.62 6.20999C16.4109 6.04445 16.1444 5.96929 15.8796 6.00121C15.6148 6.03314 15.3738 6.1695 15.21 6.37999L8.21001 15.38L4.78001 11.2C4.56095 10.9084 4.20051 10.7592 3.83944 10.8106C3.47837 10.8621 3.17395 11.106 3.04503 11.4472C2.91612 11.7883 2.98318 12.1726 3.22001 12.45L7.39001 17.63C7.58064 17.865 7.86742 18.001 8.17001 18C8.49172 18.0144 8.80067 17.8729 9.00001 17.62L16.83 7.61999C16.9913 7.40592 17.0598 7.13608 17.0204 6.871C16.9809 6.60592 16.8366 6.36778 16.62 6.20999Z" fill="#212B36"/>
<path d="M21.6198 6.20999C21.4108 6.04445 21.1442 5.96929 20.8794 6.00121C20.6147 6.03314 20.3736 6.1695 20.2098 6.37999L13.2098 15.38L12.5998 14.63L11.3398 16.25L12.4398 17.62C12.6305 17.855 12.9173 17.991 13.2198 17.99C13.5241 17.9886 13.8112 17.8487 13.9998 17.61L21.8298 7.60999C21.9879 7.39659 22.0546 7.12907 22.0152 6.86643C21.9758 6.6038 21.8336 6.36762 21.6198 6.20999V6.20999Z" fill="#212B36"/>
<path d="M8.70982 13.06L9.99982 11.44L9.79982 11.2C9.64029 10.979 9.39745 10.8327 9.12749 10.7949C8.85754 10.7572 8.58387 10.8312 8.36982 11C8.16234 11.1667 8.02986 11.4092 8.00171 11.6738C7.97355 11.9385 8.05205 12.2034 8.21982 12.41L8.70982 13.06Z" fill="#212B36"/>
</svg>
