<svg width="24" height="25" viewBox="0 0 24 25" fill="none" xmlns="http://www.w3.org/2000/svg">
<path fill-rule="evenodd" clip-rule="evenodd" d="M12 2.00989C17.523 2.00989 22 6.48689 22 12.0099C22 17.5329 17.523 22.0099 12 22.0099C6.477 22.0099 2 17.5329 2 12.0099C2 6.48689 6.477 2.00989 12 2.00989ZM12 4.00989C7.58172 4.00989 4 7.59161 4 12.0099C4 16.4282 7.58172 20.0099 12 20.0099C16.4183 20.0099 20 16.4282 20 12.0099C20 7.59161 16.4183 4.00989 12 4.00989ZM12 18.0099C14.7614 18.0099 17 15.7713 17 13.0099H7C7 15.7713 9.23858 18.0099 12 18.0099Z" fill="#212B36"/>
</svg>
