<svg width="24" height="24" viewBox="0 0 24 24" fill="none" xmlns="http://www.w3.org/2000/svg">
<path d="M19.9999 5C19.9999 4.44772 19.5522 4 18.9999 4H13.9999C13.4477 4 12.9999 4.44772 12.9999 5C12.9999 5.55228 13.4477 6 13.9999 6H16.5699L13.2899 9.29C13.1006 9.47777 12.9941 9.73336 12.9941 10C12.9941 10.2666 13.1006 10.5222 13.2899 10.71C13.4777 10.8993 13.7333 11.0058 13.9999 11.0058C14.2666 11.0058 14.5222 10.8993 14.7099 10.71L17.9999 7.42V10C17.9999 10.5523 18.4477 11 18.9999 11C19.5522 11 19.9999 10.5523 19.9999 10V5Z" fill="#212B36"/>
<path d="M10.71 13.2899C10.5222 13.1006 10.2666 12.9941 10 12.9941C9.73336 12.9941 9.47777 13.1006 9.29 13.2899L6 16.5699V13.9999C6 13.4477 5.55228 12.9999 5 12.9999C4.44772 12.9999 4 13.4477 4 13.9999V18.9999C4 19.5522 4.44772 19.9999 5 19.9999H10C10.5523 19.9999 11 19.5522 11 18.9999C11 18.4477 10.5523 17.9999 10 17.9999H7.42L10.71 14.7099C10.8993 14.5222 11.0058 14.2666 11.0058 13.9999C11.0058 13.7333 10.8993 13.4777 10.71 13.2899V13.2899Z" fill="#212B36"/>
</svg>
