<svg width="25" height="24" viewBox="0 0 25 24" fill="none" xmlns="http://www.w3.org/2000/svg">
<circle cx="12.0117" cy="12" r="1.5" fill="#212B36"/>
<path fill-rule="evenodd" clip-rule="evenodd" d="M11.7418 4.99999C17.7218 4.81999 21.2418 10.39 21.8818 11.5C22.0604 11.8094 22.0604 12.1906 21.8818 12.5C21.0218 14 17.8118 18.86 12.2818 19H12.0318C6.14179 19 2.77179 13.59 2.14179 12.5C1.96315 12.1906 1.96315 11.8094 2.14179 11.5C3.01179 9.99999 6.21179 5.13999 11.7418 4.99999ZM8.51179 12C8.51179 13.933 10.0788 15.5 12.0118 15.5C13.9448 15.5 15.5118 13.933 15.5118 12C15.5118 10.067 13.9448 8.49999 12.0118 8.49999C10.0788 8.49999 8.51179 10.067 8.51179 12Z" fill="#212B36"/>
</svg>
