<svg width="24" height="25" viewBox="0 0 24 25" fill="none" xmlns="http://www.w3.org/2000/svg">
<path fill-rule="evenodd" clip-rule="evenodd" d="M16.6603 4.60987L19.4003 7.34987C20.1663 8.07964 20.1976 9.29153 19.4703 10.0599L10.4703 19.0599C10.1443 19.3831 9.7171 19.5844 9.2603 19.6299L5.0903 20.0099H5.0003C4.7345 20.0114 4.47902 19.9071 4.2903 19.7199C4.07934 19.5097 3.97303 19.2164 4.0003 18.9199L4.4303 14.7499C4.47581 14.2931 4.67707 13.8658 5.0003 13.5399L14.0003 4.53987C14.7761 3.88442 15.92 3.91452 16.6603 4.60987ZM13.3203 8.00987L16.0003 10.6899L18.0003 8.73987L15.2703 6.00987L13.3203 8.00987Z" fill="#212B36"/>
</svg>
