<svg width="25" height="24" viewBox="0 0 25 24" fill="none" xmlns="http://www.w3.org/2000/svg">
<path d="M12.0117 13.5C12.8401 13.5 13.5117 12.8284 13.5117 12C13.5117 11.1716 12.8401 10.5 12.0117 10.5C11.1833 10.5 10.5117 11.1716 10.5117 12C10.5117 12.8284 11.1833 13.5 12.0117 13.5Z" fill="#212B36"/>
<path d="M15.3018 18.12L14.0118 16.78L13.9418 16.71L12.6718 15.44C12.4703 15.4753 12.2663 15.4954 12.0618 15.5C11.598 15.5066 11.1375 15.421 10.707 15.2481C10.2766 15.0751 9.88485 14.8184 9.55453 14.4927C9.22421 14.167 8.96192 13.779 8.78291 13.351C8.6039 12.9231 8.51174 12.4639 8.51179 12C8.51643 11.7954 8.53648 11.5915 8.57179 11.39L6.57179 9.39L5.01179 7.87C3.88311 8.93347 2.9162 10.1564 2.14179 11.5C2.05402 11.652 2.00781 11.8245 2.00781 12C2.00781 12.1755 2.05402 12.348 2.14179 12.5C2.77179 13.59 6.14179 19 12.0318 19H12.2818C13.3893 18.9671 14.4825 18.7404 15.5118 18.33L15.3018 18.12Z" fill="#212B36"/>
<path d="M8.60172 5.75999L11.4017 8.55999C11.6033 8.52469 11.8072 8.50463 12.0117 8.49999C12.94 8.49999 13.8302 8.86874 14.4866 9.52512C15.143 10.1815 15.5117 11.0717 15.5117 12C15.5071 12.2045 15.487 12.4085 15.4517 12.61L18.1317 15.29L18.9717 16.13C20.1146 15.0693 21.0951 13.8462 21.8817 12.5C21.9695 12.348 22.0157 12.1755 22.0157 12C22.0157 11.8245 21.9695 11.652 21.8817 11.5C21.2417 10.39 17.7217 4.81999 11.7417 4.99999C10.6342 5.03285 9.54096 5.25961 8.51172 5.66999L8.60172 5.75999Z" fill="#212B36"/>
<path d="M20.7219 19.2899L19.4219 17.9999L17.4219 15.9999L7.9019 6.46994L6.4319 4.99994L4.7219 3.28994C4.62867 3.1967 4.51798 3.12274 4.39615 3.07228C4.27433 3.02182 4.14376 2.99585 4.0119 2.99585C3.88005 2.99585 3.74948 3.02182 3.62766 3.07228C3.50583 3.12274 3.39514 3.1967 3.3019 3.28994C3.1136 3.47825 3.00781 3.73364 3.00781 3.99994C3.00781 4.26624 3.1136 4.52164 3.3019 4.70994L5.5419 6.99994L7.2919 8.69994L14.6019 15.9999L14.6719 16.0699L16.0119 17.4099L16.6019 17.9999L19.3019 20.7099C19.3949 20.8037 19.5055 20.8781 19.6273 20.9288C19.7492 20.9796 19.8799 21.0057 20.0119 21.0057C20.1439 21.0057 20.2746 20.9796 20.3965 20.9288C20.5183 20.8781 20.6289 20.8037 20.7219 20.7099C20.8156 20.617 20.89 20.5064 20.9408 20.3845C20.9916 20.2627 21.0177 20.132 21.0177 19.9999C21.0177 19.8679 20.9916 19.7372 20.9408 19.6154C20.89 19.4935 20.8156 19.3829 20.7219 19.2899V19.2899Z" fill="#212B36"/>
</svg>
