<svg width="24" height="25" viewBox="0 0 24 25" fill="none" xmlns="http://www.w3.org/2000/svg">
<path d="M11.1096 23.0098C10.9936 23.0097 10.8786 22.9894 10.7696 22.9498C10.3368 22.7914 10.0684 22.3578 10.1196 21.8998L10.8896 14.8098H4.99956C4.62935 14.8104 4.28912 14.6064 4.11523 14.2795C3.94134 13.9527 3.96224 13.5565 4.16956 13.2498L12.0596 1.44983C12.3163 1.06989 12.7986 0.913261 13.2296 1.06983C13.643 1.22334 13.9071 1.62963 13.8796 2.06983L13.1096 9.20983H18.9996C19.3698 9.20927 19.71 9.41329 19.8839 9.74012C20.0578 10.067 20.0369 10.4631 19.8296 10.7698L11.9396 22.5698C11.7533 22.8454 11.4422 23.0103 11.1096 23.0098V23.0098Z" fill="#212B36"/>
</svg>
