<svg width="25" height="24" viewBox="0 0 25 24" fill="none" xmlns="http://www.w3.org/2000/svg">
<path fill-rule="evenodd" clip-rule="evenodd" d="M3.01172 7C3.01172 7.55 3.46172 8 4.01172 8H20.0117C20.5617 8 21.0117 7.55 21.0117 7C21.0117 6.45 20.5617 6 20.0117 6H4.01172C3.46172 6 3.01172 6.45 3.01172 7ZM11.0117 18H13.0117C13.5617 18 14.0117 17.55 14.0117 17C14.0117 16.45 13.5617 16 13.0117 16H11.0117C10.4617 16 10.0117 16.45 10.0117 17C10.0117 17.55 10.4617 18 11.0117 18ZM17.0117 13H7.01172C6.46172 13 6.01172 12.55 6.01172 12C6.01172 11.45 6.46172 11 7.01172 11H17.0117C17.5617 11 18.0117 11.45 18.0117 12C18.0117 12.55 17.5617 13 17.0117 13Z" fill="#212B36"/>
</svg>
