<svg width="24" height="25" viewBox="0 0 24 25" fill="none" xmlns="http://www.w3.org/2000/svg">
<rect x="10" y="14.0099" width="4" height="7" fill="#212B36"/>
<path d="M20.4201 10.1898L12.7101 2.30984C12.5223 2.12052 12.2668 2.01404 12.0001 2.01404C11.7335 2.01404 11.4779 2.12052 11.2901 2.30984L3.58012 10.1998C3.20327 10.5797 2.99437 11.0948 3.00012 11.6298V20.0098C2.99851 21.0728 3.82872 21.9514 4.89012 22.0098H8.00012V13.0098C8.00012 12.4576 8.44783 12.0098 9.00012 12.0098H15.0001C15.5524 12.0098 16.0001 12.4576 16.0001 13.0098V22.0098H19.1101C20.1715 21.9514 21.0017 21.0728 21.0001 20.0098V11.6298C21.0009 11.0928 20.7929 10.5764 20.4201 10.1898Z" fill="#212B36"/>
</svg>
