<svg width="24" height="25" viewBox="0 0 24 25" fill="none" xmlns="http://www.w3.org/2000/svg">
<path fill-rule="evenodd" clip-rule="evenodd" d="M17.45 4.6699L20.79 11.3499C20.9293 11.6294 21.0013 11.9376 21 12.2499V18.0099C21 19.6668 19.6569 21.0099 18 21.0099H6.00003C4.34318 21.0099 3.00003 19.6668 3.00003 18.0099V12.2499C2.99881 11.9376 3.07073 11.6294 3.21003 11.3499L6.55003 4.6699C7.05883 3.65074 8.10093 3.00766 9.24003 3.0099H14.76C15.8991 3.00766 16.9412 3.65074 17.45 4.6699ZM9.24003 5.0099C8.85987 5.00725 8.5111 5.2204 8.34003 5.5599L5.62003 11.0099H8.00003C8.55232 11.0099 9.00003 11.4576 9.00003 12.0099V14.0099C9.00003 14.5622 9.44775 15.0099 10 15.0099H14C14.5523 15.0099 15 14.5622 15 14.0099V12.0099C15 11.4576 15.4477 11.0099 16 11.0099H18.38L15.66 5.5599C15.489 5.2204 15.1402 5.00725 14.76 5.0099H9.24003Z" fill="#212B36"/>
</svg>
