<svg width="24" height="25" viewBox="0 0 24 25" fill="none" xmlns="http://www.w3.org/2000/svg">
<path fill-rule="evenodd" clip-rule="evenodd" d="M17 21.0099H7V7.00989H8V5.50989C8 4.12918 9.11929 3.00989 10.5 3.00989H13.5C14.8807 3.00989 16 4.12918 16 5.50989V7.00989H17V21.0099ZM10.5 5.00989C10.2239 5.00989 10 5.23375 10 5.50989V7.00989H14V5.50989C14 5.23375 13.7761 5.00989 13.5 5.00989H10.5Z" fill="#212B36"/>
<path d="M19 7.00989V21.0099C20.6569 21.0099 22 19.6667 22 18.0099V10.0099C22 8.35303 20.6569 7.00989 19 7.00989Z" fill="#212B36"/>
<path d="M5 7.00989C3.34315 7.00989 2 8.35303 2 10.0099V18.0099C2 19.6667 3.34315 21.0099 5 21.0099V7.00989Z" fill="#212B36"/>
</svg>
