<svg width="24" height="25" viewBox="0 0 24 25" fill="none" xmlns="http://www.w3.org/2000/svg">
<path d="M20 11.0099C19.4477 11.0099 19 11.4576 19 12.0099V18.0099C19 18.5622 18.5523 19.0099 18 19.0099H6C5.44772 19.0099 5 18.5622 5 18.0099V6.00989C5 5.4576 5.44772 5.00989 6 5.00989H12C12.5523 5.00989 13 4.56217 13 4.00989C13 3.4576 12.5523 3.00989 12 3.00989H6C4.34315 3.00989 3 4.35303 3 6.00989V18.0099C3 19.6667 4.34315 21.0099 6 21.0099H18C19.6569 21.0099 21 19.6667 21 18.0099V12.0099C21 11.4576 20.5523 11.0099 20 11.0099Z" fill="#212B36"/>
<path d="M15.9999 5.00989H17.5799L11.2899 11.2899C11.1006 11.4777 10.9941 11.7332 10.9941 11.9999C10.9941 12.2665 11.1006 12.5221 11.2899 12.7099C11.4777 12.8992 11.7333 13.0057 11.9999 13.0057C12.2666 13.0057 12.5222 12.8992 12.7099 12.7099L18.9999 6.42989V8.00989C18.9999 8.56217 19.4477 9.00989 19.9999 9.00989C20.5522 9.00989 20.9999 8.56217 20.9999 8.00989V4.00989C20.9999 3.4576 20.5522 3.00989 19.9999 3.00989H15.9999C15.4477 3.00989 14.9999 3.4576 14.9999 4.00989C14.9999 4.56217 15.4477 5.00989 15.9999 5.00989Z" fill="#212B36"/>
</svg>
