<svg width="24" height="25" viewBox="0 0 24 25" fill="none" xmlns="http://www.w3.org/2000/svg">
<circle cx="12" cy="9.50989" r="1.5" fill="#212B36"/>
<path fill-rule="evenodd" clip-rule="evenodd" d="M4 9.92989C4.04387 5.54288 7.61278 2.00967 12 2.00989C16.3872 2.00967 19.9561 5.54288 20 9.92989C20 15.4099 13 21.5099 12.65 21.7699C12.2758 22.09 11.7242 22.09 11.35 21.7699L11.3484 21.7685C11.0254 21.4885 4 15.4003 4 9.92989ZM8.5 9.50989C8.5 11.4429 10.067 13.0099 12 13.0099C12.9283 13.0099 13.8185 12.6411 14.4749 11.9848C15.1313 11.3284 15.5 10.4381 15.5 9.50989C15.5 7.57689 13.933 6.00989 12 6.00989C10.067 6.00989 8.5 7.57689 8.5 9.50989Z" fill="#212B36"/>
</svg>
