<svg width="24" height="25" viewBox="0 0 24 25" fill="none" xmlns="http://www.w3.org/2000/svg">
<path fill-rule="evenodd" clip-rule="evenodd" d="M21 8.00989C22.1 8.00989 23 8.90989 23 10.0099V12.0099C23 12.2699 22.95 12.5099 22.86 12.7399L19.84 19.7899C19.54 20.5099 18.83 21.0099 18 21.0099H9C7.9 21.0099 7 20.1099 7 19.0099V9.00989C7 8.45989 7.22 7.95989 7.59 7.59989L14.17 1.00989L15.23 2.05989C15.5 2.32989 15.67 2.70989 15.67 3.11989L15.64 3.43989L14.69 8.00989H21ZM5 21.0099H1V9.00989H5V21.0099Z" fill="#212B36"/>
</svg>
