<svg width="24" height="24" viewBox="0 0 24 24" fill="none" xmlns="http://www.w3.org/2000/svg">
<path fill-rule="evenodd" clip-rule="evenodd" d="M21 6.79609C21 6.59688 20.9179 6.40703 20.773 6.26641L15.5764 1.22031C15.4315 1.07969 15.2335 1 15.0283 1H4.77273C4.34531 1 4 1.33516 4 1.75V21.25C4 21.6648 4.34531 22 4.77273 22H20.2273C20.6547 22 21 21.6648 21 21.25V6.79609ZM13.4837 14.2944C13.9253 14.2392 14.3142 14.211 14.68 14.2231C15.1945 14.2397 15.5738 14.3366 15.78 14.5392C15.9795 14.7382 16.053 15.0982 15.9603 15.4086C15.8545 15.762 15.5617 15.9866 15.1285 15.9866C14.6036 15.9866 13.8244 15.75 13.1502 15.389C12.7622 15.4551 12.3357 15.571 11.7719 15.7546C11.6417 15.7967 11.5102 15.8406 11.3287 15.9018L11.042 15.9987C10.9531 16.0288 10.8782 16.0538 10.8082 16.0772L10.7764 16.0878C9.98681 17.4427 9.27164 18.0427 8.68971 17.9976C8.45911 17.9798 8.26682 17.8564 8.13911 17.6666C8.02659 17.4991 7.97719 17.2948 8.00996 17.1384C8.07743 16.8011 8.32273 16.4799 8.7155 16.1673C9.01332 15.9307 9.36778 15.7172 9.82296 15.4825C10.1639 14.883 10.6721 13.8081 11.0567 12.8913C10.7548 11.7222 10.6714 11.0367 10.8138 10.5157C10.9013 10.1935 11.2434 9.9856 11.6157 10.0008C12.015 10.0169 12.3319 10.2788 12.4114 10.7268C12.4545 10.9342 12.468 11.1581 12.4555 11.4007C12.4388 11.7222 12.3832 12.041 12.2796 12.4778L12.2497 12.6026L12.2239 12.7082C12.5039 13.4371 12.8981 13.9332 13.4837 14.2944ZM19 7L15 3V7H19ZM11.9014 14L11.8672 14.0913H11.867C11.5927 14.823 11.3381 15.4052 11.0625 15.89L11 16L11.1172 15.9547C11.2515 15.9026 11.7824 15.683 11.734 15.7028C12.1982 15.5136 12.5376 15.3991 12.902 15.3229L13 15.3026L12.9197 15.2426C12.5474 14.9641 12.2089 14.5646 11.948 14.0857L11.9014 14Z" fill="#212B36"/>
</svg>
