<svg width="24" height="25" viewBox="0 0 24 25" fill="none" xmlns="http://www.w3.org/2000/svg">
<path fill-rule="evenodd" clip-rule="evenodd" d="M3 5.00989V19.0099C3 20.1099 3.89 21.0099 5 21.0099H19C20.1 21.0099 21 20.1099 21 19.0099V5.00989C21 3.90989 20.1 3.00989 19 3.00989H5C3.89 3.00989 3 3.90989 3 5.00989ZM15 9.00989C15 10.6699 13.66 12.0099 12 12.0099C10.34 12.0099 9 10.6699 9 9.00989C9 7.34989 10.34 6.00989 12 6.00989C13.66 6.00989 15 7.34989 15 9.00989ZM12 13.9099C10 13.9099 6 15.0099 6 17.0099V18.0099H18V17.0099C18 15.0099 14 13.9099 12 13.9099Z" fill="#212B36"/>
</svg>
