<svg width="24" height="25" viewBox="0 0 24 25" fill="none" xmlns="http://www.w3.org/2000/svg">
<path fill-rule="evenodd" clip-rule="evenodd" d="M4.5 20.5099L3 22.0099V2.00989L4.5 3.50989L6 2.00989L7.5 3.50989L9 2.00989L10.5 3.50989L12 2.00989L13.5 3.50989L15 2.00989L16.5 3.50989L18 2.00989L19.5 3.50989L21 2.00989V22.0099L19.5 20.5099L18 22.0099L16.5 20.5099L15 22.0099L13.5 20.5099L12 22.0099L10.5 20.5099L9 22.0099L7.5 20.5099L6 22.0099L4.5 20.5099ZM18 7.00989V9.00989H6V7.00989H18ZM6 11.0099V13.0099H18V11.0099H6ZM6 15.0099V17.0099H18V15.0099H6Z" fill="#212B36"/>
</svg>
