<svg width="25" height="24" viewBox="0 0 25 24" fill="none" xmlns="http://www.w3.org/2000/svg">
<path fill-rule="evenodd" clip-rule="evenodd" d="M2.01172 12C2.01172 6.47715 6.48887 2 12.0117 2C14.6639 2 17.2074 3.05357 19.0828 4.92893C20.9582 6.8043 22.0117 9.34784 22.0117 12C22.0117 17.5228 17.5346 22 12.0117 22C6.48887 22 2.01172 17.5228 2.01172 12ZM15.0175 14C15.0175 13.7334 14.911 13.4778 14.7217 13.29L13.4217 12L14.7217 10.71C15.1138 10.3179 15.1138 9.68212 14.7217 9.29C14.3296 8.89788 13.6938 8.89788 13.3017 9.29L12.0117 10.59L10.7217 9.29C10.3296 8.89788 9.69384 8.89788 9.30172 9.29C8.9096 9.68212 8.9096 10.3179 9.30172 10.71L10.6017 12L9.30172 13.29C9.11241 13.4778 9.00592 13.7334 9.00592 14C9.00592 14.2666 9.11241 14.5222 9.30172 14.71C9.48949 14.8993 9.74508 15.0058 10.0117 15.0058C10.2784 15.0058 10.534 14.8993 10.7217 14.71L12.0117 13.41L13.3017 14.71C13.4895 14.8993 13.7451 15.0058 14.0117 15.0058C14.2784 15.0058 14.534 14.8993 14.7217 14.71C14.911 14.5222 15.0175 14.2666 15.0175 14Z" fill="#212B36"/>
</svg>
