<svg width="20" height="20" viewBox="0 0 20 20" fill="none" xmlns="http://www.w3.org/2000/svg">
<path fill-rule="evenodd" clip-rule="evenodd" d="M15.6002 11.1661L17.1002 12.6744C17.4854 13.066 17.5987 13.6502 17.3878 14.1574C17.1769 14.6647 16.6828 14.9963 16.1335 14.9994H13.3335V15.2828C13.2525 17.0441 11.7618 18.4081 10.0002 18.3328C8.23853 18.4081 6.74789 17.0441 6.66685 15.2828V14.9994H3.86685C3.31754 14.9963 2.82346 14.6647 2.61258 14.1574C2.40169 13.6502 2.51498 13.066 2.90018 12.6744L4.40018 11.1661V7.27442C4.40313 5.65872 5.10171 4.12255 6.31745 3.05838C7.53319 1.99421 9.14831 1.50513 10.7502 1.71608C13.5714 2.14849 15.6414 4.59554 15.6002 7.44942V11.1661ZM10.0001 16.6661C10.8363 16.7251 11.5708 16.1155 11.6668 15.2828V14.9994H8.33345V15.2828C8.42946 16.1155 9.16395 16.7251 10.0001 16.6661Z" fill="#637381"/>
</svg>
