<svg width="24" height="25" viewBox="0 0 24 25" fill="none" xmlns="http://www.w3.org/2000/svg">
<circle cx="12" cy="12.0099" r="1.5" fill="#212B36"/>
<path fill-rule="evenodd" clip-rule="evenodd" d="M19.23 9.37989H20.32C21.2495 9.38539 22 10.1404 22 11.0699V13.0099C21.9952 13.9109 21.2805 14.6477 20.38 14.6799H19.29C19.1589 14.6909 19.046 14.7766 19 14.8999C18.927 15.0124 18.927 15.1574 19 15.2699L19.73 15.9999C20.0457 16.3134 20.2233 16.7399 20.2233 17.1849C20.2233 17.6298 20.0457 18.0564 19.73 18.3699L18.39 19.7099C18.0801 20.0287 17.6546 20.209 17.21 20.2099C16.7635 20.204 16.3367 20.0247 16.02 19.7099L15.26 18.9399C15.1475 18.8669 15.0025 18.8669 14.89 18.9399C14.74 18.9999 14.63 19.0999 14.63 19.2399V20.3299C14.6245 21.2593 13.8695 22.0099 12.94 22.0099H11.05C10.1451 22.0105 9.40232 21.2942 9.37 20.3899V19.2999C9.35895 19.1688 9.27326 19.0559 9.15 19.0099C9.02506 18.9298 8.86494 18.9298 8.74 19.0099L7.97 19.7499C7.65648 20.0656 7.22994 20.2432 6.785 20.2432C6.34006 20.2432 5.91352 20.0656 5.6 19.7499L4.26 18.3899C3.93962 18.0769 3.75931 17.6478 3.76 17.1999C3.76586 16.7534 3.94517 16.3266 4.26 16.0099L5.07 15.2699C5.14298 15.1574 5.14298 15.0124 5.07 14.8999C5.01 14.7499 4.91 14.6399 4.77 14.6399H3.68C2.75055 14.6344 1.99998 13.8794 2 12.9499V11.0599C2 10.132 2.75216 9.37989 3.68 9.37989H4.71C4.84109 9.36883 4.95403 9.28315 5 9.15989C5.08005 9.03494 5.08005 8.87483 5 8.74989L4.26 8.00989C3.93494 7.69528 3.75142 7.26226 3.75142 6.80989C3.75142 6.35752 3.93494 5.9245 4.26 5.60989L5.63 4.26989C5.9399 3.95104 6.36536 3.77076 6.81 3.76989C7.25653 3.77575 7.68328 3.95506 8 4.26989L8.74 5.07989C8.85254 5.15287 8.99746 5.15287 9.11 5.07989C9.26 5.01989 9.37 4.91989 9.37 4.77989V3.68989C9.3755 2.76043 10.1305 2.00987 11.06 2.00989H13C13.9083 2.03693 14.6304 2.78123 14.63 3.68989V4.71989C14.6411 4.85098 14.7267 4.96392 14.85 5.00989C14.9749 5.08994 15.1351 5.08994 15.26 5.00989L16.03 4.26989C16.3435 3.95417 16.7701 3.77661 17.215 3.77661C17.6599 3.77661 18.0865 3.95417 18.4 4.26989L19.74 5.63989C20.0594 5.95351 20.2396 6.38224 20.24 6.82989C20.2414 7.27499 20.0608 7.70132 19.74 8.00989L18.93 8.74989C18.857 8.86242 18.857 9.00735 18.93 9.11989C18.99 9.26989 19.09 9.37989 19.23 9.37989ZM8.76642 13.3493C9.30816 14.6571 10.5844 15.5099 12 15.5099C13.933 15.5099 15.5 13.9429 15.5 12.0099C15.5 10.5943 14.6473 9.31804 13.3394 8.77631C12.0315 8.23458 10.5261 8.53402 9.52513 9.53501C8.52413 10.536 8.22469 12.0414 8.76642 13.3493Z" fill="#212B36"/>
</svg>
