<svg width="24" height="25" viewBox="0 0 24 25" fill="none" xmlns="http://www.w3.org/2000/svg">
<path d="M17.9995 15.0099C17.2139 15.0106 16.4599 15.3194 15.8995 15.8699L7.99955 12.3499V12.0099V11.6799L15.8995 8.14993C16.9198 9.14997 18.5037 9.29183 19.6854 8.489C20.8671 7.68616 21.3188 6.16139 20.7649 4.84449C20.2111 3.52758 18.8054 2.78391 17.4051 3.06698C16.0048 3.35004 14.9984 4.5813 14.9995 6.00993V6.34993L7.09955 9.86993C5.92258 8.7136 4.03275 8.72475 2.8695 9.89487C1.70626 11.065 1.70626 12.9549 2.8695 14.125C4.03275 15.2951 5.92258 15.3063 7.09955 14.1499L14.9995 17.6799V18.0099C14.9995 19.6668 16.3427 21.0099 17.9995 21.0099C19.6564 21.0099 20.9995 19.6668 20.9995 18.0099C20.9995 16.3531 19.6564 15.0099 17.9995 15.0099Z" fill="#212B36"/>
</svg>
