<svg width="20" height="20" viewBox="0 0 20 20" fill="none" xmlns="http://www.w3.org/2000/svg">
<path fill-rule="evenodd" clip-rule="evenodd" d="M17.23 7.37H18.32C19.2495 7.3755 20 8.13053 20 9.06V11C19.9952 11.901 19.2805 12.6378 18.38 12.67H17.29C17.1589 12.6811 17.046 12.7667 17 12.89C16.927 13.0025 16.927 13.1475 17 13.26L17.73 13.99C18.0457 14.3035 18.2233 14.7301 18.2233 15.175C18.2233 15.6199 18.0457 16.0465 17.73 16.36L16.39 17.7C16.0801 18.0189 15.6546 18.1991 15.21 18.2C14.7635 18.1941 14.3367 18.0148 14.02 17.7L13.26 16.93C13.1475 16.857 13.0025 16.857 12.89 16.93C12.74 16.99 12.63 17.09 12.63 17.23V18.32C12.6245 19.2495 11.8695 20 10.94 20H9.05C8.1451 20.0006 7.40232 19.2843 7.37 18.38V17.29C7.35895 17.1589 7.27326 17.046 7.15 17C7.02506 16.9199 6.86494 16.9199 6.74 17L5.97 17.74C5.65648 18.0557 5.22994 18.2333 4.785 18.2333C4.34006 18.2333 3.91352 18.0557 3.6 17.74L2.26 16.38C1.93962 16.067 1.75931 15.6379 1.76 15.19C1.76586 14.7435 1.94517 14.3167 2.26 14L3.07 13.26C3.14298 13.1475 3.14298 13.0025 3.07 12.89C3.01 12.74 2.91 12.63 2.77 12.63H1.68C0.750546 12.6245 -1.62718e-05 11.8695 0 10.94V9.05C0 8.12216 0.752162 7.37 1.68 7.37H2.71C2.84109 7.35895 2.95403 7.27326 3 7.15C3.08005 7.02506 3.08005 6.86494 3 6.74L2.26 6C1.93494 5.68539 1.75142 5.25237 1.75142 4.8C1.75142 4.34763 1.93494 3.91461 2.26 3.6L3.63 2.26C3.9399 1.94115 4.36536 1.76087 4.81 1.76C5.25653 1.76586 5.68328 1.94517 6 2.26L6.74 3.07C6.85254 3.14298 6.99746 3.14298 7.11 3.07C7.26 3.01 7.37 2.91 7.37 2.77V1.68C7.3755 0.750546 8.13053 -1.62718e-05 9.06 0H11C11.9083 0.0270433 12.6304 0.771342 12.63 1.68V2.71C12.6411 2.84109 12.7267 2.95403 12.85 3C12.9749 3.08005 13.1351 3.08005 13.26 3L14.03 2.26C14.3435 1.94428 14.7701 1.76672 15.215 1.76672C15.6599 1.76672 16.0865 1.94428 16.4 2.26L17.74 3.63C18.0594 3.94362 18.2396 4.37235 18.24 4.82C18.2414 5.2651 18.0608 5.69143 17.74 6L16.93 6.74C16.857 6.85254 16.857 6.99746 16.93 7.11C16.99 7.26 17.09 7.37 17.23 7.37ZM6.76642 11.3394C7.30816 12.6473 8.58438 13.5 10 13.5C11.933 13.5 13.5 11.933 13.5 10C13.5 8.58438 12.6473 7.30816 11.3394 6.76642C10.0315 6.22469 8.52612 6.52413 7.52513 7.52513C6.52413 8.52612 6.22469 10.0315 6.76642 11.3394Z" fill="#4DB6AC"/>
</svg>
