<svg width="24" height="25" viewBox="0 0 24 25" fill="none" xmlns="http://www.w3.org/2000/svg">
<path d="M17.5598 21.0098C17.3999 21.0105 17.2421 20.9728 17.0998 20.8998L11.9998 18.2298L6.89979 20.8998C6.56192 21.0775 6.15238 21.0473 5.84422 20.822C5.53605 20.5968 5.38302 20.2157 5.44979 19.8398L6.44979 14.2098L2.32979 10.2098C2.06784 9.94845 1.97167 9.56376 2.07979 9.20985C2.19803 8.84727 2.51221 8.58351 2.88979 8.52985L8.58979 7.69985L11.0998 2.56985C11.2669 2.22486 11.6165 2.00574 11.9998 2.00574C12.3831 2.00574 12.7327 2.22486 12.8998 2.56985L15.4398 7.68985L21.1398 8.51985C21.5174 8.57351 21.8315 8.83727 21.9498 9.19985C22.0579 9.55376 21.9617 9.93845 21.6998 10.1998L17.5798 14.1998L18.5798 19.8298C18.6527 20.2126 18.4966 20.6029 18.1798 20.8298C17.9987 20.9567 17.7807 21.02 17.5598 21.0098V21.0098Z" fill="#212B36"/>
</svg>
