<svg width="24" height="25" viewBox="0 0 24 25" fill="none" xmlns="http://www.w3.org/2000/svg">
<path fill-rule="evenodd" clip-rule="evenodd" d="M17.0998 20.8998C17.2421 20.9728 17.3999 21.0105 17.5598 21.0098C17.7807 21.02 17.9987 20.9567 18.1798 20.8298C18.4966 20.6029 18.6527 20.2126 18.5798 19.8298L17.5798 14.1998L21.6998 10.1998C21.9617 9.93845 22.0579 9.55376 21.9498 9.19985C21.8315 8.83727 21.5174 8.57351 21.1398 8.51985L15.4398 7.68985L12.8998 2.56985C12.7327 2.22486 12.3831 2.00574 11.9998 2.00574C11.6165 2.00574 11.2669 2.22486 11.0998 2.56985L8.58979 7.69985L2.88979 8.52985C2.51221 8.58351 2.19803 8.84727 2.07979 9.20985C1.97167 9.56376 2.06784 9.94845 2.32979 10.2098L6.44979 14.2098L5.44979 19.8398C5.38302 20.2157 5.53605 20.5968 5.84422 20.822C6.15238 21.0473 6.56192 21.0775 6.89979 20.8998L11.9998 18.2298L17.0998 20.8998ZM12.4598 16.2198C12.3187 16.1437 12.1601 16.1058 11.9998 16.1098C11.8326 16.0766 11.6595 16.0905 11.4998 16.1498L7.72979 18.1498L8.44979 13.9898C8.50651 13.6635 8.39791 13.3302 8.15979 13.0998L5.15979 10.1698L9.35979 9.54985C9.68296 9.50309 9.96295 9.3015 10.1098 9.00985L11.9998 5.25985L13.8898 9.00985C14.0237 9.29897 14.2874 9.50696 14.5998 9.56985L18.7998 10.1898L15.7998 13.1198C15.5617 13.3502 15.4531 13.6835 15.5098 14.0098L16.2298 18.2198L12.4598 16.2198Z" fill="#212B36"/>
</svg>
