<svg width="24" height="25" viewBox="0 0 24 25" fill="none" xmlns="http://www.w3.org/2000/svg">
<path d="M12 6.00989C12.5523 6.00989 13 5.56217 13 5.00989V3.00989C13 2.4576 12.5523 2.00989 12 2.00989C11.4477 2.00989 11 2.4576 11 3.00989V5.00989C11 5.56217 11.4477 6.00989 12 6.00989Z" fill="#212B36"/>
<path d="M21 11.0099H19C18.4477 11.0099 18 11.4576 18 12.0099C18 12.5622 18.4477 13.0099 19 13.0099H21C21.5523 13.0099 22 12.5622 22 12.0099C22 11.4576 21.5523 11.0099 21 11.0099Z" fill="#212B36"/>
<path d="M6 12.0099C6 11.4576 5.55228 11.0099 5 11.0099H3C2.44772 11.0099 2 11.4576 2 12.0099C2 12.5622 2.44772 13.0099 3 13.0099H5C5.55228 13.0099 6 12.5622 6 12.0099Z" fill="#212B36"/>
<path d="M6.22023 5.00984C5.8143 4.626 5.17407 4.64391 4.79023 5.04984C4.40639 5.45577 4.4243 6.096 4.83023 6.47984L6.27023 7.86984C6.46548 8.05837 6.72898 8.15944 7.00023 8.14984C7.27242 8.1488 7.53242 8.03685 7.72023 7.83984C8.10796 7.4498 8.10796 6.81987 7.72023 6.42984L6.22023 5.00984Z" fill="#212B36"/>
<path d="M16.9996 8.14989C17.2571 8.14887 17.5042 8.04857 17.6896 7.86989L19.1296 6.47989C19.4942 6.09896 19.5004 5.50041 19.1437 5.11206C18.7871 4.72371 18.1901 4.679 17.7796 5.00989L16.3396 6.42989C15.9519 6.81993 15.9519 7.44985 16.3396 7.83989C16.5128 8.02261 16.7484 8.13331 16.9996 8.14989V8.14989Z" fill="#212B36"/>
<path d="M12 18.0099C11.4477 18.0099 11 18.4576 11 19.0099V21.0099C11 21.5622 11.4477 22.0099 12 22.0099C12.5523 22.0099 13 21.5622 13 21.0099V19.0099C13 18.4576 12.5523 18.0099 12 18.0099Z" fill="#212B36"/>
<path d="M17.7299 16.1499C17.3322 15.766 16.6987 15.7772 16.3149 16.1749C15.9311 16.5725 15.9422 17.206 16.3399 17.5899L17.7799 19.0099C17.9653 19.1885 18.2124 19.2888 18.4699 19.2899C18.7406 19.2914 19.0004 19.1832 19.1899 18.9899C19.3792 18.8021 19.4857 18.5465 19.4857 18.2799C19.4857 18.0132 19.3792 17.7576 19.1899 17.5699L17.7299 16.1499Z" fill="#212B36"/>
<path d="M6.26998 16.1499L4.82998 17.5399C4.64067 17.7276 4.53418 17.9832 4.53418 18.2499C4.53418 18.5165 4.64067 18.7721 4.82998 18.9599C5.01948 19.1532 5.27926 19.2615 5.54998 19.2599C5.79649 19.262 6.03509 19.173 6.21998 19.0099L7.65998 17.6199C8.05762 17.236 8.06882 16.6025 7.68498 16.2049C7.30114 15.8072 6.66762 15.796 6.26998 16.1799V16.1499Z" fill="#212B36"/>
<path d="M12 8.00989C9.79086 8.00989 8 9.80075 8 12.0099C8 14.219 9.79086 16.0099 12 16.0099C14.2091 16.0099 16 14.219 16 12.0099C16 9.80075 14.2091 8.00989 12 8.00989V8.00989Z" fill="#212B36"/>
</svg>
