<svg width="24" height="25" viewBox="0 0 24 25" fill="none" xmlns="http://www.w3.org/2000/svg">
<path d="M21 6.00992H16V4.33992C15.9765 3.69974 15.7002 3.09498 15.2316 2.65822C14.7629 2.22145 14.1402 1.98832 13.5 2.00992H10.5C9.85975 1.98832 9.23706 2.22145 8.76843 2.65822C8.2998 3.09498 8.02346 3.69974 8 4.33992V6.00992H3C2.73478 6.00992 2.48043 6.11528 2.29289 6.30282C2.10536 6.49035 2 6.74471 2 7.00992C2 7.27514 2.10536 7.52949 2.29289 7.71703C2.48043 7.90457 2.73478 8.00992 3 8.00992H4V19.0099C4 19.8056 4.31607 20.5686 4.87868 21.1312C5.44129 21.6939 6.20435 22.0099 7 22.0099H17C17.7956 22.0099 18.5587 21.6939 19.1213 21.1312C19.6839 20.5686 20 19.8056 20 19.0099V8.00992H21C21.2652 8.00992 21.5196 7.90457 21.7071 7.71703C21.8946 7.52949 22 7.27514 22 7.00992C22 6.74471 21.8946 6.49035 21.7071 6.30282C21.5196 6.11528 21.2652 6.00992 21 6.00992ZM10 4.33992C10 4.17992 10.21 4.00992 10.5 4.00992H13.5C13.79 4.00992 14 4.17992 14 4.33992V6.00992H10V4.33992ZM18 19.0099C18 19.2751 17.8946 19.5295 17.7071 19.717C17.5196 19.9046 17.2652 20.0099 17 20.0099H7C6.73478 20.0099 6.48043 19.9046 6.29289 19.717C6.10536 19.5295 6 19.2751 6 19.0099V8.00992H18V19.0099Z" fill="#212B36"/>
<path d="M9 17.0099C9.26522 17.0099 9.51957 16.9045 9.70711 16.717C9.89464 16.5295 10 16.2751 10 16.0099V12.0099C10 11.7447 9.89464 11.4903 9.70711 11.3028C9.51957 11.1152 9.26522 11.0099 9 11.0099C8.73478 11.0099 8.48043 11.1152 8.29289 11.3028C8.10536 11.4903 8 11.7447 8 12.0099V16.0099C8 16.2751 8.10536 16.5295 8.29289 16.717C8.48043 16.9045 8.73478 17.0099 9 17.0099Z" fill="#212B36"/>
<path d="M15 17.0099C15.2652 17.0099 15.5196 16.9045 15.7071 16.717C15.8946 16.5295 16 16.2751 16 16.0099V12.0099C16 11.7447 15.8946 11.4903 15.7071 11.3028C15.5196 11.1152 15.2652 11.0099 15 11.0099C14.7348 11.0099 14.4804 11.1152 14.2929 11.3028C14.1054 11.4903 14 11.7447 14 12.0099V16.0099C14 16.2751 14.1054 16.5295 14.2929 16.717C14.4804 16.9045 14.7348 17.0099 15 17.0099Z" fill="#212B36"/>
</svg>
