<svg width="24" height="24" viewBox="0 0 24 24" fill="none" xmlns="http://www.w3.org/2000/svg">
<path d="M21.0003 12.0001C21.0003 11.4478 20.5526 11.0001 20.0003 11.0001C19.448 11.0001 19.0003 11.4478 19.0003 12.0001V14.3L14.7603 9.30005C14.4443 8.93067 13.9084 8.84206 13.4903 9.09005L9.22029 11.7L4.77029 6.36005C4.54164 6.08496 4.18359 5.95274 3.83103 6.01321C3.47847 6.07368 3.18494 6.31765 3.06103 6.65321C2.93712 6.98877 3.00164 7.36496 3.23029 7.64005L8.23029 13.64C8.5448 14.0182 9.08757 14.1115 9.51029 13.8601L13.7903 11.2901L17.7903 16.0001H15.0003C14.448 16.0001 14.0003 16.4478 14.0003 17.0001C14.0003 17.5523 14.448 18.0001 15.0003 18.0001H20.0003C20.1234 17.997 20.245 17.9734 20.3603 17.93L20.5003 17.85C20.5524 17.8238 20.6026 17.7937 20.6503 17.76C20.7051 17.7106 20.7522 17.6533 20.7903 17.59C20.8238 17.5457 20.8539 17.4989 20.8803 17.4501C20.9048 17.396 20.9216 17.3388 20.9303 17.2801C20.9708 17.1919 20.9946 17.0969 21.0003 17.0001V12.0001Z" fill="#212B36"/>
</svg>
