<svg width="24" height="25" viewBox="0 0 24 25" fill="none" xmlns="http://www.w3.org/2000/svg">
<path d="M9 11.0099C11.2091 11.0099 13 9.21903 13 7.00989C13 4.80075 11.2091 3.00989 9 3.00989C6.79086 3.00989 5 4.80075 5 7.00989C5 9.21903 6.79086 11.0099 9 11.0099Z" fill="#212B36"/>
<path d="M17 13.0099C18.6569 13.0099 20 11.6667 20 10.0099C20 8.35303 18.6569 7.00989 17 7.00989C15.3431 7.00989 14 8.35303 14 10.0099C14 11.6667 15.3431 13.0099 17 13.0099Z" fill="#212B36"/>
<path d="M21 20.0099C21.5523 20.0099 22 19.5622 22 19.0099C21.9984 17.1032 20.9125 15.3634 19.2003 14.5244C17.4882 13.6853 15.4479 13.893 13.94 15.0599C11.9371 13.0648 8.93071 12.4704 6.31923 13.553C3.70774 14.6357 2.00382 17.1829 2 20.0099C2 20.5622 2.44772 21.0099 3 21.0099H15C15.5523 21.0099 16 20.5622 16 20.0099" fill="#212B36"/>
</svg>
