<svg width="24" height="25" viewBox="0 0 24 25" fill="none" xmlns="http://www.w3.org/2000/svg">
<path fill-rule="evenodd" clip-rule="evenodd" d="M6 5.00989H3C2.45 5.00989 2 5.45989 2 6.00989V18.0099C2 18.5599 2.45 19.0099 3 19.0099H6C6.55 19.0099 7 18.5599 7 18.0099V6.00989C7 5.45989 6.55 5.00989 6 5.00989ZM20 5.00989H17C16.45 5.00989 16 5.45989 16 6.00989V18.0099C16 18.5599 16.45 19.0099 17 19.0099H20C20.55 19.0099 21 18.5599 21 18.0099V6.00989C21 5.45989 20.55 5.00989 20 5.00989ZM10 5.00989H13C13.55 5.00989 14 5.45989 14 6.00989V18.0099C14 18.5599 13.55 19.0099 13 19.0099H10C9.45 19.0099 9 18.5599 9 18.0099V6.00989C9 5.45989 9.45 5.00989 10 5.00989Z" fill="#212B36"/>
</svg>
