<svg width="24" height="25" viewBox="0 0 24 25" fill="none" xmlns="http://www.w3.org/2000/svg">
<path fill-rule="evenodd" clip-rule="evenodd" d="M3 3.00989H20C20.55 3.00989 21 3.45989 21 4.00989V10.0099C21 10.5599 20.55 11.0099 20 11.0099H3C2.45 11.0099 2 10.5599 2 10.0099V4.00989C2 3.45989 2.45 3.00989 3 3.00989ZM3 13.0099H20C20.55 13.0099 21 13.4599 21 14.0099V20.0099C21 20.5599 20.55 21.0099 20 21.0099H3C2.45 21.0099 2 20.5599 2 20.0099V14.0099C2 13.4599 2.45 13.0099 3 13.0099Z" fill="#212B36"/>
</svg>
