<svg width="24" height="25" viewBox="0 0 24 25" fill="none" xmlns="http://www.w3.org/2000/svg">
<path fill-rule="evenodd" clip-rule="evenodd" d="M8 11.0099H5C4.45 11.0099 4 10.5599 4 10.0099V6.00989C4 5.45989 4.45 5.00989 5 5.00989H8C8.55 5.00989 9 5.45989 9 6.00989V10.0099C9 10.5599 8.55 11.0099 8 11.0099ZM8 18.0099H5C4.45 18.0099 4 17.5599 4 17.0099V13.0099C4 12.4599 4.45 12.0099 5 12.0099H8C8.55 12.0099 9 12.4599 9 13.0099V17.0099C9 17.5599 8.55 18.0099 8 18.0099ZM11 18.0099H14C14.55 18.0099 15 17.5599 15 17.0099V13.0099C15 12.4599 14.55 12.0099 14 12.0099H11C10.45 12.0099 10 12.4599 10 13.0099V17.0099C10 17.5599 10.45 18.0099 11 18.0099ZM20 18.0099H17C16.45 18.0099 16 17.5599 16 17.0099V13.0099C16 12.4599 16.45 12.0099 17 12.0099H20C20.55 12.0099 21 12.4599 21 13.0099V17.0099C21 17.5599 20.55 18.0099 20 18.0099ZM11 11.0099H14C14.55 11.0099 15 10.5599 15 10.0099V6.00989C15 5.45989 14.55 5.00989 14 5.00989H11C10.45 5.00989 10 5.45989 10 6.00989V10.0099C10 10.5599 10.45 11.0099 11 11.0099ZM16 10.0099V6.00989C16 5.45989 16.45 5.00989 17 5.00989H20C20.55 5.00989 21 5.45989 21 6.00989V10.0099C21 10.5599 20.55 11.0099 20 11.0099H17C16.45 11.0099 16 10.5599 16 10.0099Z" fill="#212B36"/>
</svg>
