<svg width="24" height="25" viewBox="0 0 24 25" fill="none" xmlns="http://www.w3.org/2000/svg">
<path fill-rule="evenodd" clip-rule="evenodd" d="M7 6.00989C9.61 6.00989 11.83 7.67989 12.65 10.0099H23V14.0099H21V18.0099H17V14.0099H12.65C11.83 16.3399 9.61 18.0099 7 18.0099C3.69 18.0099 1 15.3199 1 12.0099C1 8.69989 3.69 6.00989 7 6.00989ZM5 12.0099C5 13.1099 5.9 14.0099 7 14.0099C8.1 14.0099 9 13.1099 9 12.0099C9 10.9099 8.1 10.0099 7 10.0099C5.9 10.0099 5 10.9099 5 12.0099Z" fill="#212B36"/>
</svg>
