<svg width="24" height="25" viewBox="0 0 24 25" fill="none" xmlns="http://www.w3.org/2000/svg">
<path fill-rule="evenodd" clip-rule="evenodd" d="M2 5.00989V4.00989C2 3.45989 2.45 3.00989 3 3.00989H20C20.55 3.00989 21 3.45989 21 4.00989V5.00989C21 5.55989 20.55 6.00989 20 6.00989H3C2.45 6.00989 2 5.55989 2 5.00989ZM20 8.00989H3C2.45 8.00989 2 8.45989 2 9.00989V15.0099C2 15.5599 2.45 16.0099 3 16.0099H20C20.55 16.0099 21 15.5599 21 15.0099V9.00989C21 8.45989 20.55 8.00989 20 8.00989ZM3 21.0099H20C20.55 21.0099 21 20.5599 21 20.0099V19.0099C21 18.4599 20.55 18.0099 20 18.0099H3C2.45 18.0099 2 18.4599 2 19.0099V20.0099C2 20.5599 2.45 21.0099 3 21.0099Z" fill="#212B36"/>
</svg>
