<svg width="24" height="24" viewBox="0 0 24 24" fill="none" xmlns="http://www.w3.org/2000/svg">
<g id="icon/color/ic_chrome">
<g id="chrome-color">
<path id="Path" d="M2.89746 4.18065C8.4759 -2.31176 18.8193 -1.03019 22.6861 6.5536C19.9642 6.55459 15.7018 6.55279 13.3932 6.5536C11.7189 6.55419 10.6378 6.51613 9.46712 7.13243C8.09079 7.85691 7.05232 9.19985 6.68982 10.7772L2.89746 4.18065V4.18065Z" fill="#EA4335"/>
<path id="Path_2" d="M8.00781 11.9995C8.00781 14.1999 9.79692 15.99 11.9961 15.99C14.1952 15.99 15.9843 14.1999 15.9843 11.9995C15.9843 9.79919 14.1952 8.00903 11.9961 8.00903C9.79692 8.00903 8.00781 9.79919 8.00781 11.9995V11.9995Z" fill="#4285F4"/>
<path id="Path_3" d="M13.5438 17.2229C11.3053 17.8881 8.68567 17.1503 7.25074 14.6735C6.15542 12.7828 3.26143 7.74119 1.94603 5.44873C-2.66093 12.5098 1.30962 22.1321 9.67323 23.7745L13.5438 17.2229V17.2229Z" fill="#34A853"/>
<path id="Path_4" d="M15.7005 8.00903C17.5649 9.74312 17.9711 12.5511 16.7082 14.7283C15.7567 16.3687 12.7199 21.4942 11.248 23.9761C19.8652 24.5073 26.1469 16.0618 23.3095 8.00903H15.7005V8.00903Z" fill="#FBBC05"/>
</g>
</g>
</svg>
