<svg width="24" height="24" viewBox="0 0 24 24" fill="none" xmlns="http://www.w3.org/2000/svg">
<g id="icon/color/ic_code">
<path id="Combined Shape" fill-rule="evenodd" clip-rule="evenodd" d="M8.95721 20.0504C8.82229 20.5965 9.15438 21.1492 9.69963 21.2873C10.2494 21.4266 10.8083 21.092 10.9443 20.5414L15.0439 3.94961C15.1788 3.40355 14.8467 2.85085 14.3014 2.71273C13.7516 2.57345 13.1928 2.90801 13.0567 3.45862L8.95721 20.0504ZM6.59584 16.8648C6.19544 17.2702 5.53652 17.2747 5.13612 16.8693L1.04991 12.7318C0.650031 12.3269 0.650031 11.6725 1.04991 11.2676L5.13612 7.1301C5.53652 6.72468 6.19544 6.72914 6.59584 7.13456C6.98924 7.5329 6.99354 8.17786 6.60014 8.5762L3.21906 11.9997L6.60014 15.4232C6.99354 15.8215 6.98924 16.4665 6.59584 16.8648ZM18.8639 16.8693C18.4635 17.2747 17.8046 17.2702 17.4042 16.8648C17.0108 16.4665 17.0065 15.8215 17.3999 15.4232L20.7809 11.9997L17.3999 8.5762C17.0065 8.17786 17.0108 7.5329 17.4042 7.13456C17.8046 6.72914 18.4635 6.72468 18.8639 7.1301L22.9501 11.2676C23.35 11.6725 23.35 12.3269 22.9501 12.7318L18.8639 16.8693Z" fill="#FF4842"/>
</g>
</svg>
