<svg width="24" height="24" viewBox="0 0 24 24" fill="none" xmlns="http://www.w3.org/2000/svg">
<g id="icon/color/ic_doc">
<g id="google-docs">
<path id="Path" d="M3.00781 1.50024V22.5002C3.00781 23.3251 3.68268 24 4.50758 24H19.0916C19.9167 24 20.5918 23.3249 20.5918 22.4998V5.52447C20.5918 5.06391 20.4088 4.62221 20.0832 4.29652L16.2953 0.508612C15.9696 0.182965 15.5279 0 15.0673 0H4.50805C3.68292 0 3.00781 0.675106 3.00781 1.50024Z" fill="#00AB55"/>
<path id="Path_2" d="M7.00502 11.5784H16.5946C16.8336 11.5784 17.0273 11.3847 17.0273 11.1456V10.0903C17.0273 9.85133 16.8336 9.65759 16.5946 9.65759H7.00502C6.76601 9.65759 6.57227 9.85133 6.57227 10.0903V11.1456C6.57227 11.3847 6.76601 11.5784 7.00502 11.5784Z" fill="#C8FACD"/>
<path id="Path_3" d="M7.00502 14.5768H16.5946C16.8336 14.5768 17.0273 14.3831 17.0273 14.1441V13.0888C17.0273 12.8497 16.8336 12.656 16.5946 12.656H7.00502C6.76601 12.656 6.57227 12.8497 6.57227 13.0888V14.1441C6.57227 14.3831 6.76601 14.5768 7.00502 14.5768Z" fill="#C8FACD"/>
<path id="Path_4" d="M7.00502 17.575H16.5946C16.8336 17.575 17.0273 17.3813 17.0273 17.1423V16.087C17.0273 15.848 16.8336 15.6543 16.5946 15.6543H7.00502C6.76601 15.6543 6.57227 15.848 6.57227 16.087V17.1423C6.57227 17.3813 6.76601 17.575 7.00502 17.575Z" fill="#C8FACD"/>
<path id="Path_5" d="M6.88558 20.5735H11.7399C11.913 20.5735 12.0533 20.4332 12.0533 20.2601V18.966C12.0533 18.793 11.913 18.6527 11.7399 18.6527H6.88558C6.71255 18.6527 6.57227 18.793 6.57227 18.966V20.2601C6.57227 20.4332 6.71255 20.5735 6.88558 20.5735V20.5735Z" fill="#C8FACD"/>
<path id="Path_6" d="M16.2955 0.508564C16.0724 0.285505 15.7948 0.129458 15.4941 0.0532227V4.94367L20.592 10.0416V5.52438C20.592 5.06381 20.4091 4.62212 20.0834 4.29642L16.2955 0.508564Z" fill="url(#paint0_linear_0_8588)"/>
<path id="Path_7" fill-rule="evenodd" clip-rule="evenodd" d="M20.5401 5.1032C20.5457 5.1273 20.5508 5.15078 20.5555 5.17341H15.9603C15.6349 5.17341 15.3711 4.90965 15.3711 4.58424V0.0273438C15.407 0.0337437 15.4447 0.0412261 15.4837 0.0498379C15.8262 0.125603 16.1385 0.301744 16.3866 0.549791L20.041 4.20414C20.2881 4.45125 20.4616 4.76273 20.5401 5.1032V5.1032Z" fill="url(#paint1_linear_0_8588)"/>
<path id="Path_8" d="M20.584 20V21.9694C20.584 23.0862 19.9089 24 19.0838 24H4.49976C3.67487 24 3 23.0865 3 21.97V20H20.584Z" fill="url(#paint2_linear_0_8588)"/>
</g>
</g>
<defs>
<linearGradient id="paint0_linear_0_8588" x1="20.4501" y1="6.40048" x2="16.7515" y2="3.5852" gradientUnits="userSpaceOnUse">
<stop stop-color="#00AB55" stop-opacity="0.01"/>
<stop offset="1" stop-color="#005249"/>
</linearGradient>
<linearGradient id="paint1_linear_0_8588" x1="12.7789" y1="2.60038" x2="17.9248" y2="7.78461" gradientUnits="userSpaceOnUse">
<stop stop-color="#5BE584"/>
<stop offset="1" stop-color="#00AB55"/>
</linearGradient>
<linearGradient id="paint2_linear_0_8588" x1="4.84957" y1="21.0509" x2="4.84957" y2="24.2094" gradientUnits="userSpaceOnUse">
<stop stop-color="#00AB55" stop-opacity="0.01"/>
<stop offset="1" stop-color="#005249"/>
</linearGradient>
</defs>
</svg>
