<svg width="24" height="24" viewBox="0 0 24 24" fill="none" xmlns="http://www.w3.org/2000/svg">
<g id="icon/color/ic_design">
<path id="Combined Shape" fill-rule="evenodd" clip-rule="evenodd" d="M1 2C1 1.44772 1.44772 1 2 1H5.5C6.05228 1 6.5 1.44772 6.5 2V5.5C6.5 6.05228 6.05228 6.5 5.5 6.5H2C1.44772 6.5 1 6.05228 1 5.5V2ZM19.3333 14.75V7.41667C19.3333 5.89788 18.1021 4.66667 16.5833 4.66667H9.25C8.74374 4.66667 8.33333 4.25626 8.33333 3.75C8.33333 3.24374 8.74374 2.83333 9.25 2.83333H16.5833C19.1134 2.83636 21.1636 4.88662 21.1667 7.41667V14.75C21.1667 15.2563 20.7563 15.6667 20.25 15.6667C19.7437 15.6667 19.3333 15.2563 19.3333 14.75ZM4.66667 9.25V16.5833C4.66667 18.1021 5.89788 19.3333 7.41667 19.3333H14.75C15.2563 19.3333 15.6667 19.7437 15.6667 20.25C15.6667 20.7563 15.2563 21.1667 14.75 21.1667H7.41667C4.88662 21.1636 2.83636 19.1134 2.83333 16.5833V9.25C2.83333 8.74374 3.24374 8.33333 3.75 8.33333C4.25626 8.33333 4.66667 8.74374 4.66667 9.25ZM18.5 17.5C17.9477 17.5 17.5 17.9477 17.5 18.5V22C17.5 22.5523 17.9477 23 18.5 23H22C22.5523 23 23 22.5523 23 22V18.5C23 17.9477 22.5523 17.5 22 17.5H18.5Z" fill="#1890FF"/>
</g>
</svg>
