<svg width="24" height="24" viewBox="0 0 24 24" fill="none" xmlns="http://www.w3.org/2000/svg">
<g id="icon/color/ic_evernote">
<g id="evernote-color">
<path id="Shape" fill-rule="evenodd" clip-rule="evenodd" d="M21.4549 4.17543C21.2763 3.21769 20.7093 2.74594 20.1961 2.56069C19.6433 2.3597 18.5213 2.15195 17.1117 1.9847C15.9777 1.8512 14.645 1.8617 13.8397 1.88645C13.7433 1.22196 13.2794 0.615215 12.7595 0.405215C11.376 -0.15428 9.23726 -0.01928 8.68894 0.13522C8.25268 0.257465 7.76935 0.508715 7.50042 0.89496C7.32039 1.15296 7.20385 1.48445 7.2031 1.94645C7.2031 2.16311 7.20822 2.62229 7.21337 3.08455L7.21655 3.37144C7.22213 3.82736 7.22823 4.24346 7.23014 4.37359L7.23014 4.37369L7.23074 4.41543C7.23074 4.90368 6.83557 5.30192 6.34626 5.30267H4.10294C3.6241 5.30267 3.25805 5.38367 2.97941 5.51042C2.69928 5.63867 2.50131 5.81042 2.35042 6.01367C2.05086 6.41791 1.99857 6.9159 2.00006 7.4244C2.00006 7.4244 2.00454 7.84065 2.10464 8.64464C2.18756 9.26713 2.85989 13.6163 3.4986 14.9386C3.74586 15.4531 3.91096 15.6676 4.39727 15.8941C5.48121 16.3606 7.9576 16.8788 9.11773 17.0273C9.30988 17.0519 9.49016 17.0811 9.65919 17.1084C10.5094 17.2459 11.0751 17.3373 11.4365 16.5766C11.438 16.5743 11.5232 16.3493 11.6404 16.0201C12.0169 14.8756 12.0692 13.8601 12.0692 13.1258C12.0692 13.0508 12.1783 13.0478 12.1783 13.1258C12.1783 13.1546 12.178 13.1875 12.1777 13.224V13.2241C12.1719 13.8441 12.1565 15.5075 13.4609 15.9728C14.0063 16.1671 15.1373 16.3396 16.2862 16.4753C17.3253 16.5953 18.0798 17.0056 18.0798 19.6823C18.0798 21.3105 17.7392 21.534 15.9583 21.534L15.8258 21.5341C14.4805 21.5352 13.9637 21.5356 13.9637 20.4203C13.9637 19.5688 14.7315 19.5779 15.3822 19.5856H15.3824C15.4429 19.5863 15.5023 19.587 15.5601 19.587C15.7515 19.587 15.7351 19.4973 15.6966 19.2874C15.674 19.1639 15.6438 18.9988 15.6438 18.7861C15.6438 18.5437 15.7077 18.3448 15.7557 18.1954C15.8209 17.9925 15.8568 17.8811 15.6632 17.8763C13.313 17.8111 11.9303 17.8733 11.9303 20.8238C11.9303 23.5028 12.9515 24 16.2862 24C18.9015 24 19.8234 23.9137 20.9028 20.5508C21.1165 19.8863 21.6334 17.8606 21.9457 14.4578C22.1436 12.3069 21.7597 5.81417 21.4549 4.17543ZM16.8965 11.3521C16.5738 11.3409 16.263 11.3611 15.9732 11.4076C16.0546 10.7469 16.3265 9.93538 17.2895 9.96913C18.3555 10.0066 18.5049 11.0176 18.5086 11.7031C18.0589 11.5014 17.5024 11.3739 16.8965 11.3521ZM3.9991 4.64867H3.99761C3.4463 4.64867 2.98614 4.74243 2.60665 4.91493C2.58946 4.92243 2.46621 4.98317 2.37581 5.02817C2.37806 5.01918 2.38403 5.00943 2.39225 5.00268L6.75115 0.662465C6.76012 0.654215 6.76833 0.649715 6.7773 0.648965L6.70035 0.79296C6.53974 1.11546 6.44786 1.49945 6.44786 1.94045V1.9472C6.44786 2.46485 6.47285 4.27739 6.47465 4.40799L6.47475 4.41543C6.47475 4.54293 6.37091 4.64867 6.24243 4.64867H3.9991Z" fill="#20C05C"/>
</g>
</g>
</svg>
