<svg width="120" height="139" viewBox="0 0 120 139" fill="none" xmlns="http://www.w3.org/2000/svg">
<g id="icon/color/ic_email_sent">
<path id="Path" opacity="0.48062" fill-rule="evenodd" clip-rule="evenodd" d="M64.2591 138.387C63.8591 138.495 63.4476 138.258 63.3398 137.858C63.232 137.458 63.4689 137.046 63.8689 136.938C64.4527 136.781 65.061 136.618 65.7998 136.419C66.1998 136.312 66.6113 136.549 66.7187 136.949C66.8262 137.349 66.589 137.76 66.189 137.868C65.4505 138.066 64.8425 138.23 64.2591 138.387ZM71.9854 136.308C71.5856 136.416 71.1738 136.18 71.0656 135.78C70.9574 135.38 71.1939 134.968 71.5937 134.86C72.267 134.678 72.905 134.505 73.5222 134.336C73.9218 134.227 74.3341 134.463 74.443 134.863C74.5519 135.262 74.3163 135.675 73.9167 135.784C73.2985 135.952 72.6596 136.126 71.9854 136.308ZM79.7058 134.179C79.3073 134.292 78.8928 134.06 78.78 133.661C78.6673 133.263 78.899 132.848 79.2976 132.735C79.9499 132.551 80.5889 132.369 81.2171 132.188C81.6152 132.073 82.0307 132.303 82.1453 132.701C82.2598 133.099 82.0299 133.515 81.6319 133.63C81.0015 133.811 80.3603 133.994 79.7058 134.179ZM87.3979 131.919C87.0018 132.041 86.5824 131.818 86.4609 131.422C86.3395 131.026 86.5621 130.607 86.9581 130.485C87.6012 130.288 88.2358 130.091 88.8628 129.894C89.2579 129.77 89.679 129.989 89.8032 130.384C89.9274 130.78 89.7078 131.201 89.3127 131.325C88.6823 131.523 88.0443 131.721 87.3979 131.919ZM95.0375 129.448C94.6457 129.583 94.2192 129.374 94.0851 128.982C93.9509 128.59 94.1598 128.163 94.5517 128.029C95.1855 127.812 95.8127 127.594 96.4338 127.375C96.8243 127.237 97.2528 127.442 97.3907 127.832C97.5287 128.223 97.3239 128.651 96.9334 128.789C96.3077 129.01 95.6759 129.23 95.0375 129.448ZM102.581 126.692C102.196 126.842 101.761 126.652 101.61 126.266C101.459 125.88 101.65 125.445 102.035 125.295C102.567 125.087 103.094 124.878 103.614 124.668C103.749 124.613 103.749 124.613 103.882 124.558C104.265 124.401 104.703 124.583 104.861 124.966C105.019 125.349 104.836 125.788 104.453 125.945C104.318 126.001 104.318 126.001 104.178 126.058C103.65 126.271 103.118 126.482 102.581 126.692ZM109.961 123.349C109.599 123.551 109.142 123.421 108.94 123.059C108.739 122.697 108.868 122.241 109.23 122.039C109.815 121.713 110.371 121.379 110.903 121.035C111.251 120.81 111.715 120.91 111.94 121.258C112.165 121.606 112.065 122.07 111.718 122.295C111.158 122.657 110.573 123.007 109.961 123.349ZM116.449 118.207C116.198 118.537 115.728 118.601 115.398 118.35C115.068 118.099 115.004 117.629 115.255 117.299C115.639 116.794 115.955 116.266 116.188 115.734C116.353 115.354 116.796 115.181 117.175 115.347C117.555 115.513 117.728 115.955 117.562 116.335C117.28 116.98 116.903 117.61 116.449 118.207ZM116.836 109.85C117.062 110.197 116.964 110.662 116.617 110.888C116.269 111.114 115.805 111.015 115.579 110.668C115.253 110.167 114.865 109.687 114.415 109.225C114.126 108.928 114.132 108.454 114.429 108.165C114.726 107.876 115.2 107.882 115.489 108.179C116.005 108.709 116.455 109.264 116.836 109.85ZM110.357 104.572C110.724 104.765 110.865 105.219 110.672 105.585C110.479 105.952 110.026 106.093 109.659 105.9C109.552 105.844 109.443 105.787 109.348 105.738C108.871 105.506 108.39 105.287 107.898 105.079C107.517 104.918 107.338 104.478 107.5 104.097C107.661 103.715 108.101 103.537 108.483 103.698C108.998 103.916 109.503 104.145 110.019 104.396C110.134 104.455 110.246 104.514 110.357 104.572ZM102.648 101.808C103.051 101.904 103.3 102.309 103.204 102.712C103.108 103.115 102.703 103.363 102.3 103.267C101.673 103.118 101.032 102.98 100.377 102.854C99.9702 102.776 99.7038 102.383 99.782 101.976C99.8602 101.57 100.253 101.303 100.66 101.381C101.337 101.511 101.999 101.653 102.648 101.808ZM94.638 100.555C95.0505 100.592 95.3543 100.957 95.3166 101.37C95.2788 101.782 94.9138 102.086 94.5013 102.048C93.862 101.99 93.2051 101.938 92.5241 101.89C92.1109 101.862 91.7992 101.503 91.8279 101.09C91.8566 100.677 92.2148 100.365 92.6281 100.394C93.3197 100.442 93.9874 100.495 94.638 100.555ZM86.5802 100.103C86.9942 100.117 87.3181 100.464 87.3038 100.878C87.2894 101.292 86.9422 101.616 86.5283 101.602C86.2303 101.592 85.9243 101.581 85.5401 101.568C85.223 101.563 84.9032 101.559 84.5804 101.556C84.1662 101.552 83.8337 101.213 83.8378 100.799C83.8419 100.385 84.181 100.052 84.5952 100.056C84.9207 100.06 85.2431 100.064 85.5765 100.069C85.9749 100.082 86.2815 100.092 86.5802 100.103ZM78.5768 100.078C78.991 100.072 79.3317 100.402 79.3377 100.817C79.3437 101.231 79.0129 101.571 78.5987 101.578C77.9588 101.587 77.298 101.598 76.6027 101.612C76.1886 101.62 75.8463 101.291 75.8382 100.877C75.8301 100.462 76.1593 100.12 76.5734 100.112C77.2711 100.099 77.9343 100.087 78.5768 100.078ZM70.5705 100.252C70.9846 100.242 71.3286 100.569 71.3387 100.983C71.3489 101.397 71.0215 101.741 70.6074 101.751C69.824 101.771 69.2052 101.785 68.6069 101.799C68.1928 101.809 67.8494 101.481 67.8398 101.067C67.8303 100.652 68.1583 100.309 68.5724 100.3C69.1698 100.286 69.7879 100.271 70.5705 100.252ZM62.5847 100.401C62.9989 100.398 63.3375 100.731 63.3411 101.145C63.3446 101.559 63.0117 101.898 62.5975 101.901C62.1784 101.905 61.7665 101.908 61.3634 101.909C61.1123 101.911 60.8589 101.914 60.6012 101.917C60.187 101.923 59.8466 101.592 59.8409 101.178C59.8352 100.763 60.1663 100.423 60.5805 100.417C60.8413 100.414 61.0979 100.411 61.3549 100.409C61.7584 100.408 62.1679 100.405 62.5847 100.401ZM54.5736 100.572C54.9877 100.562 55.3317 100.89 55.3419 101.304C55.3521 101.718 55.0247 102.062 54.6106 102.072C53.8761 102.09 53.2249 102.102 52.5992 102.108C52.185 102.111 51.8462 101.779 51.8424 101.365C51.8386 100.95 52.1713 100.612 52.5855 100.608C53.2027 100.602 53.8463 100.59 54.5736 100.572ZM46.6528 100.412C47.0656 100.447 47.3721 100.809 47.3375 101.222C47.3029 101.635 46.9402 101.941 46.5274 101.907C45.8565 101.851 45.1855 101.782 44.5097 101.699C44.0985 101.649 43.8058 101.275 43.8558 100.864C43.9059 100.453 44.2798 100.16 44.691 100.21C45.3481 100.29 46.0004 100.357 46.6528 100.412ZM38.8639 99.1827C39.2677 99.2748 39.5205 99.6768 39.4284 100.081C39.3363 100.484 38.9343 100.737 38.5304 100.645C37.9189 100.506 37.2976 100.355 36.6652 100.193C36.611 100.179 36.611 100.179 36.5594 100.165C36.159 100.059 35.9204 99.6484 36.0265 99.248C36.1325 98.8476 36.5431 98.609 36.9435 98.7151C36.9896 98.7272 36.9896 98.7272 37.0384 98.7398C37.6576 98.8988 38.2657 99.0463 38.8639 99.1827ZM31.8766 96.1237C32.1994 96.3833 32.2507 96.8553 31.9912 97.1782C31.7317 97.501 31.2596 97.5523 30.9367 97.2928C30.3897 96.853 29.8727 96.3775 29.3912 95.8713C29.1057 95.5711 29.1176 95.0964 29.4177 94.8109C29.7178 94.5255 30.1925 94.5373 30.478 94.8375C30.9136 95.2954 31.3815 95.7256 31.8766 96.1237ZM27.5171 89.9471C27.6444 90.3413 27.428 90.764 27.0339 90.8913C26.6397 91.0185 26.217 90.8022 26.0897 90.408C25.8698 89.727 25.7084 89.0346 25.6083 88.3361C25.5495 87.9261 25.8342 87.546 26.2442 87.4872C26.6542 87.4284 27.0343 87.7131 27.0931 88.1231C27.1811 88.7367 27.3231 89.3462 27.5171 89.9471ZM27.7136 82.6111C27.5755 83.0016 27.147 83.2062 26.7565 83.0681C26.366 82.93 26.1614 82.5015 26.2995 82.111C26.5295 81.4605 26.8066 80.8187 27.1292 80.1843C27.317 79.8151 27.7686 79.6681 28.1378 79.8559C28.507 80.0437 28.654 80.4952 28.4662 80.8644C28.1726 81.4415 27.9215 82.0234 27.7136 82.6111ZM31.8635 76.1497C31.5814 76.453 31.1068 76.4703 30.8035 76.1882C30.5002 75.9061 30.483 75.4315 30.7651 75.1282C31.2165 74.6429 31.6948 74.1595 32.2021 73.6745C32.5015 73.3882 32.9763 73.3989 33.2625 73.6982C33.5488 73.9976 33.5382 74.4724 33.2388 74.7586C32.7521 75.224 32.2942 75.6866 31.8635 76.1497Z" fill="#00AB55"/>
<path id="Path_2" d="M118.933 0.286229C119.693 0.477044 119.87 1.39704 119.676 2.05808C119.24 4.0003 118.483 5.85393 117.886 7.75186C109.585 33.6652 101.284 59.5785 92.9827 85.4919C92.7986 86.5141 91.7247 87.2739 90.7122 87.0525C80.1543 78.4215 69.5691 69.8144 58.9907 61.2073C54.1975 66.2264 49.4759 71.3341 44.2736 75.9341C42.9441 77.0245 41.6213 78.1762 40.0429 78.8849C39.6202 79.0144 38.8634 79.2631 38.6691 78.6907C38.6111 77.6548 38.8736 76.636 38.9793 75.6138C40.2509 65.6982 41.5395 55.7827 42.8929 45.8773C29.2736 43.8636 15.6577 41.8532 2.03838 39.853C1.31224 39.7304 0.347467 39.5975 0.0849666 38.7831C-0.0582152 37.7541 0.950876 37.1271 1.79633 36.8613C7.36338 35.2701 12.8452 33.4028 18.3747 31.6855C50.9997 21.3236 83.6282 10.9685 116.253 0.606525C117.116 0.357784 118.029 0.06134 118.933 0.286229Z" fill="url(#paint0_linear_0_8611)"/>
<path id="Combined Shape" fill-rule="evenodd" clip-rule="evenodd" d="M64.9515 33.5692C68.8754 31.2466 72.7993 28.9241 76.732 26.6187C88.3911 19.7425 100.05 12.863 111.709 5.9834C106.416 10.2413 101.06 14.4243 95.703 18.6074C92.4349 21.1596 89.1667 23.7119 85.9126 26.2813C82.3067 29.1085 78.7012 31.9361 75.0957 34.7636C67.8853 40.4182 60.6749 46.0728 53.4615 51.7244C53.1461 51.9774 52.8178 52.2159 52.4893 52.4546C51.831 52.933 51.1721 53.4118 50.6149 54.0074C49.9394 54.7477 49.6011 55.6875 49.2657 56.6192C49.1627 56.9053 49.06 57.1907 48.9479 57.4693C48.1339 59.5472 47.2618 61.6035 46.3894 63.6603C45.877 64.8684 45.3646 66.0766 44.8638 67.2895C43.5615 70.4209 42.1808 73.5387 40.3672 76.4179C41.0978 70.3791 41.8991 64.3503 42.7004 58.3217C43.2153 54.4481 43.7302 50.5746 44.2263 46.6985C44.2433 46.6059 44.255 46.5082 44.2669 46.4091C44.3145 46.0124 44.3646 45.5946 44.7683 45.4037C51.526 41.5158 58.2389 37.5424 64.9515 33.5692ZM41.9763 76.4997C45.5524 69.5758 48.6445 62.4135 51.624 55.217C52.1445 55.6427 52.6639 56.0699 53.1834 56.4971C54.7803 57.8102 56.3775 59.1236 58.0058 60.3963C53.032 66.1003 47.7206 71.559 41.9763 76.4997Z" fill="#007B55"/>
</g>
<defs>
<linearGradient id="paint0_linear_0_8611" x1="14.3933" y1="23.5168" x2="16.0124" y2="89.055" gradientUnits="userSpaceOnUse">
<stop stop-color="#00AB55"/>
<stop offset="1" stop-color="#007B55"/>
</linearGradient>
</defs>
</svg>
