<svg width="28" height="20" viewBox="0 0 28 20" fill="none" xmlns="http://www.w3.org/2000/svg">
<g id="icon/color/ic_flags_us">
<g id="US">
<rect id="Mask" width="28" height="20" rx="3" fill="white"/>
<mask id="mask0_0_8694" style="mask-type:alpha" maskUnits="userSpaceOnUse" x="0" y="0" width="28" height="20">
<rect id="Mask_2" width="28" height="20" rx="3" fill="white"/>
</mask>
<g mask="url(#mask0_0_8694)">
<path id="Rectangle 511" fill-rule="evenodd" clip-rule="evenodd" d="M28 0H0V1.33333H28V0ZM28 2.66667H0V4H28V2.66667ZM0 5.33333H28V6.66667H0V5.33333ZM28 8H0V9.33333H28V8ZM0 10.6667H28V12H0V10.6667ZM28 13.3333H0V14.6667H28V13.3333ZM0 16H28V17.3333H0V16ZM28 18.6667H0V20H28V18.6667Z" fill="#D02F44"/>
<rect id="Rectangle 511_2" width="12" height="9.33333" fill="#46467F"/>
<g id="Oval 43" filter="url(#filter0_d_0_8694)">
<path fill-rule="evenodd" clip-rule="evenodd" d="M1.99967 2.66671C2.36786 2.66671 2.66634 2.36823 2.66634 2.00004C2.66634 1.63185 2.36786 1.33337 1.99967 1.33337C1.63148 1.33337 1.33301 1.63185 1.33301 2.00004C1.33301 2.36823 1.63148 2.66671 1.99967 2.66671ZM4.66634 2.66671C5.03453 2.66671 5.33301 2.36823 5.33301 2.00004C5.33301 1.63185 5.03453 1.33337 4.66634 1.33337C4.29815 1.33337 3.99967 1.63185 3.99967 2.00004C3.99967 2.36823 4.29815 2.66671 4.66634 2.66671ZM7.99967 2.00004C7.99967 2.36823 7.7012 2.66671 7.33301 2.66671C6.96482 2.66671 6.66634 2.36823 6.66634 2.00004C6.66634 1.63185 6.96482 1.33337 7.33301 1.33337C7.7012 1.33337 7.99967 1.63185 7.99967 2.00004ZM9.99967 2.66671C10.3679 2.66671 10.6663 2.36823 10.6663 2.00004C10.6663 1.63185 10.3679 1.33337 9.99967 1.33337C9.63148 1.33337 9.33301 1.63185 9.33301 2.00004C9.33301 2.36823 9.63148 2.66671 9.99967 2.66671ZM3.99967 3.33337C3.99967 3.70156 3.7012 4.00004 3.33301 4.00004C2.96482 4.00004 2.66634 3.70156 2.66634 3.33337C2.66634 2.96518 2.96482 2.66671 3.33301 2.66671C3.7012 2.66671 3.99967 2.96518 3.99967 3.33337ZM5.99967 4.00004C6.36786 4.00004 6.66634 3.70156 6.66634 3.33337C6.66634 2.96518 6.36786 2.66671 5.99967 2.66671C5.63148 2.66671 5.33301 2.96518 5.33301 3.33337C5.33301 3.70156 5.63148 4.00004 5.99967 4.00004ZM9.33301 3.33337C9.33301 3.70156 9.03453 4.00004 8.66634 4.00004C8.29815 4.00004 7.99967 3.70156 7.99967 3.33337C7.99967 2.96518 8.29815 2.66671 8.66634 2.66671C9.03453 2.66671 9.33301 2.96518 9.33301 3.33337ZM9.99967 5.33337C10.3679 5.33337 10.6663 5.0349 10.6663 4.66671C10.6663 4.29852 10.3679 4.00004 9.99967 4.00004C9.63148 4.00004 9.33301 4.29852 9.33301 4.66671C9.33301 5.0349 9.63148 5.33337 9.99967 5.33337ZM7.99967 4.66671C7.99967 5.0349 7.7012 5.33337 7.33301 5.33337C6.96482 5.33337 6.66634 5.0349 6.66634 4.66671C6.66634 4.29852 6.96482 4.00004 7.33301 4.00004C7.7012 4.00004 7.99967 4.29852 7.99967 4.66671ZM4.66634 5.33337C5.03453 5.33337 5.33301 5.0349 5.33301 4.66671C5.33301 4.29852 5.03453 4.00004 4.66634 4.00004C4.29815 4.00004 3.99967 4.29852 3.99967 4.66671C3.99967 5.0349 4.29815 5.33337 4.66634 5.33337ZM2.66634 4.66671C2.66634 5.0349 2.36786 5.33337 1.99967 5.33337C1.63148 5.33337 1.33301 5.0349 1.33301 4.66671C1.33301 4.29852 1.63148 4.00004 1.99967 4.00004C2.36786 4.00004 2.66634 4.29852 2.66634 4.66671ZM3.33301 6.66671C3.7012 6.66671 3.99967 6.36823 3.99967 6.00004C3.99967 5.63185 3.7012 5.33337 3.33301 5.33337C2.96482 5.33337 2.66634 5.63185 2.66634 6.00004C2.66634 6.36823 2.96482 6.66671 3.33301 6.66671ZM6.66634 6.00004C6.66634 6.36823 6.36786 6.66671 5.99967 6.66671C5.63148 6.66671 5.33301 6.36823 5.33301 6.00004C5.33301 5.63185 5.63148 5.33337 5.99967 5.33337C6.36786 5.33337 6.66634 5.63185 6.66634 6.00004ZM8.66634 6.66671C9.03453 6.66671 9.33301 6.36823 9.33301 6.00004C9.33301 5.63185 9.03453 5.33337 8.66634 5.33337C8.29815 5.33337 7.99967 5.63185 7.99967 6.00004C7.99967 6.36823 8.29815 6.66671 8.66634 6.66671ZM10.6663 7.33337C10.6663 7.70156 10.3679 8.00004 9.99967 8.00004C9.63148 8.00004 9.33301 7.70156 9.33301 7.33337C9.33301 6.96518 9.63148 6.66671 9.99967 6.66671C10.3679 6.66671 10.6663 6.96518 10.6663 7.33337ZM7.33301 8.00004C7.7012 8.00004 7.99967 7.70156 7.99967 7.33337C7.99967 6.96518 7.7012 6.66671 7.33301 6.66671C6.96482 6.66671 6.66634 6.96518 6.66634 7.33337C6.66634 7.70156 6.96482 8.00004 7.33301 8.00004ZM5.33301 7.33337C5.33301 7.70156 5.03453 8.00004 4.66634 8.00004C4.29815 8.00004 3.99967 7.70156 3.99967 7.33337C3.99967 6.96518 4.29815 6.66671 4.66634 6.66671C5.03453 6.66671 5.33301 6.96518 5.33301 7.33337ZM1.99967 8.00004C2.36786 8.00004 2.66634 7.70156 2.66634 7.33337C2.66634 6.96518 2.36786 6.66671 1.99967 6.66671C1.63148 6.66671 1.33301 6.96518 1.33301 7.33337C1.33301 7.70156 1.63148 8.00004 1.99967 8.00004Z" fill="url(#paint0_linear_0_8694)"/>
</g>
</g>
</g>
</g>
<defs>
<filter id="filter0_d_0_8694" x="1.33301" y="1.33337" width="9.33301" height="7.66663" filterUnits="userSpaceOnUse" color-interpolation-filters="sRGB">
<feFlood flood-opacity="0" result="BackgroundImageFix"/>
<feColorMatrix in="SourceAlpha" type="matrix" values="0 0 0 0 0 0 0 0 0 0 0 0 0 0 0 0 0 0 127 0" result="hardAlpha"/>
<feOffset dy="1"/>
<feColorMatrix type="matrix" values="0 0 0 0 0 0 0 0 0 0 0 0 0 0 0 0 0 0 0.06 0"/>
<feBlend mode="normal" in2="BackgroundImageFix" result="effect1_dropShadow_0_8694"/>
<feBlend mode="normal" in="SourceGraphic" in2="effect1_dropShadow_0_8694" result="shape"/>
</filter>
<linearGradient id="paint0_linear_0_8694" x1="1.33301" y1="1.33337" x2="1.33301" y2="8.00004" gradientUnits="userSpaceOnUse">
<stop stop-color="white"/>
<stop offset="1" stop-color="#F0F0F0"/>
</linearGradient>
</defs>
</svg>
