<svg width="28" height="20" viewBox="0 0 28 20" fill="none" xmlns="http://www.w3.org/2000/svg">
<g id="icon/color/ic_flag_en">
<g id="GB">
<rect id="Mask Copy" width="28" height="20" rx="3" fill="#0A17A7"/>
<mask id="mask0_0_8658" style="mask-type:alpha" maskUnits="userSpaceOnUse" x="0" y="0" width="28" height="20">
<rect id="Mask Copy_2" width="28" height="20" rx="3" fill="white"/>
</mask>
<g mask="url(#mask0_0_8658)">
<path id="Rectangle 2" fill-rule="evenodd" clip-rule="evenodd" d="M-1.28226 -1.9165L10.6669 6.14329V-1.33339H17.3335V6.14329L29.2827 -1.9165L30.7739 0.294263L21.3265 6.66661H28.0002V13.3333H21.3265L30.7739 19.7056L29.2827 21.9164L17.3335 13.8566V21.3333H10.6669V13.8566L-1.28226 21.9164L-2.77344 19.7056L6.67395 13.3333H0.000212669V6.66661H6.67395L-2.77344 0.294263L-1.28226 -1.9165Z" fill="white"/>
<path id="Line" d="M18.668 6.33219L31.3333 -2" stroke="#DB1F35" stroke-width="0.666667" stroke-linecap="round"/>
<path id="Line Copy 2" d="M20.0127 13.6975L31.3665 21.3503" stroke="#DB1F35" stroke-width="0.666667" stroke-linecap="round"/>
<path id="Line Copy" d="M8.00513 6.31042L-3.83789 -1.67102" stroke="#DB1F35" stroke-width="0.666667" stroke-linecap="round"/>
<path id="Line Copy 3" d="M9.28963 13.6049L-3.83789 22.3104" stroke="#DB1F35" stroke-width="0.666667" stroke-linecap="round"/>
<path id="Rectangle 2 Copy 3" fill-rule="evenodd" clip-rule="evenodd" d="M0 12H12V20H16V12H28V8H16V0H12V8H0V12Z" fill="#E6273E"/>
</g>
</g>
</g>
</svg>
