<svg width="24" height="24" viewBox="0 0 24 24" fill="none" xmlns="http://www.w3.org/2000/svg">
<g id="icon/color/ic_github">
<g id="github-color">
<path id="Path" d="M11.9993 0.5C5.373 0.5 0 5.89355 0 12.5483C0 17.8703 3.438 22.3859 8.20725 23.9792C8.80725 24.0899 9.02625 23.7179 9.02625 23.3987C9.02625 23.1125 9.01575 22.355 9.00975 21.3498C5.6715 22.0779 4.96725 19.7347 4.96725 19.7347C4.422 18.3432 3.63525 17.9727 3.63525 17.9727C2.5455 17.225 3.71775 17.2401 3.71775 17.2401C4.9215 17.3252 5.55525 18.4817 5.55525 18.4817C6.62625 20.3228 8.364 19.7912 9.048 19.4825C9.15675 18.7039 9.46725 18.173 9.81 17.8718C7.14525 17.5676 4.344 16.5346 4.344 11.9181C4.344 10.6026 4.81125 9.52739 5.57925 8.68482C5.4555 8.37986 5.04375 7.15553 5.69625 5.49673C5.69625 5.49673 6.70425 5.17295 8.99625 6.73161C9.954 6.4643 10.98 6.33102 12.0007 6.32575C13.02 6.33102 14.0467 6.4643 15.0052 6.73161C17.2957 5.17295 18.3015 5.49673 18.3015 5.49673C18.9563 7.15553 18.5445 8.37986 18.4207 8.68482C19.1902 9.52739 19.6545 10.6026 19.6545 11.9181C19.6545 16.5459 16.8487 17.5646 14.1757 17.8628C14.6062 18.2348 14.9902 18.9697 14.9902 20.0939C14.9902 21.7045 14.9753 23.0034 14.9753 23.3987C14.9753 23.7209 15.1913 24.0959 15.8003 23.9777C20.565 22.3814 24 17.8688 24 12.5483C24 5.89355 18.627 0.5 11.9993 0.5" fill="#3E75C3"/>
</g>
</g>
</svg>
