<svg width="36" height="24" viewBox="0 0 36 24" fill="none" xmlns="http://www.w3.org/2000/svg">
<g id="icon/color/ic_mastercard">
<rect id="Rectangle" x="12.5684" y="3.27014" width="10.21" height="16.68" fill="#F26122"/>
<path id="Path" d="M13.6687 11.6102C13.6518 8.3637 15.1264 5.28922 17.6687 3.27017C13.3189 -0.15054 7.07064 0.346185 3.31599 4.41117C-0.438663 8.47616 -0.438663 14.7442 3.31599 18.8092C7.07064 22.8741 13.3189 23.3709 17.6687 19.9502C15.1264 17.9311 13.6518 14.8566 13.6687 11.6102Z" fill="#EA1D25"/>
<path id="Path_2" d="M34.8289 11.6102C34.8263 15.6696 32.5078 19.3716 28.8568 21.146C25.2058 22.9205 20.8624 22.4562 17.6689 19.9502C22.269 16.3282 23.0656 9.66451 19.4489 5.06021C18.9305 4.39349 18.3328 3.79239 17.6689 3.27022C20.8624 0.76421 25.2058 0.299959 28.8568 2.07439C32.5078 3.84882 34.8263 7.55087 34.8289 11.6102V11.6102Z" fill="#F69E1E"/>
</g>
</svg>
