<svg width="24" height="24" viewBox="0 0 24 24" fill="none" xmlns="http://www.w3.org/2000/svg">
<g id="icon/color/ic_notification_chat">
<g id="chat">
<path id="Path" d="M15.9549 7.27183C20.3371 7.20489 23.9139 10.654 23.9987 15.0359C24.0112 15.6793 23.9469 16.3055 23.8144 16.9061C23.59 17.9232 23.4567 18.9581 23.4567 19.9997V22.0128C23.4567 22.3213 23.2067 22.5713 22.8982 22.5713H20.885C19.8435 22.5713 18.8086 22.7047 17.7915 22.929C17.1909 23.0615 16.5647 23.1258 15.9213 23.1133C11.5395 23.0285 8.09036 19.4519 8.15721 15.0697C8.22241 10.7924 11.6776 7.33718 15.9549 7.27183Z" fill="url(#paint0_linear_0_8824)"/>
<path id="Path_2" fill-rule="evenodd" clip-rule="evenodd" d="M15.9549 7.27183C20.3371 7.20489 23.9139 10.654 23.9987 15.0359C24.0112 15.6793 23.9469 16.3055 23.8144 16.9061C23.59 17.9232 23.4567 18.9581 23.4567 19.9997V22.0128C23.4567 22.3213 23.2067 22.5713 22.8982 22.5713H20.885C19.8435 22.5713 18.8086 22.7047 17.7915 22.929C17.1909 23.0615 16.5647 23.1258 15.9213 23.1133C11.5395 23.0285 8.09036 19.4519 8.15721 15.0697C8.22241 10.7924 11.6776 7.33718 15.9549 7.27183Z" fill="url(#paint1_linear_0_8824)"/>
<path id="Path_3" fill-rule="evenodd" clip-rule="evenodd" d="M9.80149 0.0425493C4.4627 -0.0390131 0.105251 4.16291 0.00184497 9.50132C-0.0132957 10.285 0.0650325 11.048 0.22647 11.7797C0.499751 13.0187 0.66222 14.2796 0.66222 15.5485V18.0011C0.66222 18.3768 0.966814 18.6815 1.34261 18.6815H3.7952C5.06402 18.6815 6.32491 18.8439 7.56395 19.1172C8.29567 19.2786 9.05861 19.357 9.84231 19.3418C15.1806 19.2384 19.3825 14.8811 19.3012 9.54242C19.2217 4.33147 15.0124 0.122096 9.80149 0.0425493Z" fill="url(#paint2_linear_0_8824)"/>
<path id="Path_4" fill-rule="evenodd" clip-rule="evenodd" d="M6.19693 9.17522C5.9243 8.88554 5.53843 8.70361 5.10915 8.70361C4.28354 8.70361 3.61426 9.37289 3.61426 10.1985C3.61426 10.6277 3.79613 11.0136 4.08587 11.2863L7.31059 14.511C7.58326 14.8007 7.96913 14.9826 8.39837 14.9826C9.22398 14.9826 9.89326 14.3133 9.89326 13.4877C9.89326 13.0585 9.71134 12.6726 9.42165 12.3999L6.19693 9.17522Z" fill="#0C53B7"/>
<path id="Path_5" fill-rule="evenodd" clip-rule="evenodd" d="M10.4245 9.17522C10.1518 8.88554 9.76597 8.70361 9.33669 8.70361C8.51108 8.70361 7.8418 9.37289 7.8418 10.1985C7.8418 10.6277 8.02367 11.0136 8.31341 11.2863L11.5381 14.511C11.8108 14.8007 12.1967 14.9826 12.6259 14.9826C13.4515 14.9826 14.1208 14.3133 14.1208 13.4877C14.1208 13.0585 13.9389 12.6726 13.6492 12.3999L10.4245 9.17522Z" fill="#0C53B7"/>
<path id="Path_6" fill-rule="evenodd" clip-rule="evenodd" d="M14.652 9.17522C14.3794 8.88554 13.9935 8.70361 13.5642 8.70361C12.7386 8.70361 12.0693 9.37289 12.0693 10.1985C12.0693 10.6277 12.2513 11.0136 12.5409 11.2863L15.7657 14.511C16.0383 14.8007 16.4242 14.9826 16.8534 14.9826C17.6791 14.9826 18.3483 14.3133 18.3483 13.4877C18.3483 13.0585 18.1664 12.6726 17.8767 12.3999L14.652 9.17522Z" fill="#0C53B7"/>
<circle id="Oval" cx="5.10915" cy="10.1983" r="1.49489" fill="white"/>
<circle id="Oval_2" cx="9.33669" cy="10.1983" r="1.49489" fill="white"/>
<circle id="Oval_3" cx="13.5642" cy="10.1983" r="1.49489" fill="white"/>
</g>
</g>
<defs>
<linearGradient id="paint0_linear_0_8824" x1="8.66367" y1="19.4096" x2="20.2945" y2="31.0404" gradientUnits="userSpaceOnUse">
<stop stop-color="#A7F3CE"/>
<stop offset="1" stop-color="#61DB99"/>
</linearGradient>
<linearGradient id="paint1_linear_0_8824" x1="0.234261" y1="15.1929" x2="16.0782" y2="31.0368" gradientUnits="userSpaceOnUse">
<stop stop-color="#5BE584"/>
<stop offset="1" stop-color="#00AB55"/>
</linearGradient>
<linearGradient id="paint2_linear_0_8824" x1="-9.65117" y1="9.69251" x2="9.65109" y2="28.9948" gradientUnits="userSpaceOnUse">
<stop stop-color="#74CAFF"/>
<stop offset="1" stop-color="#0C53B7"/>
</linearGradient>
</defs>
</svg>
