<svg width="24" height="24" viewBox="0 0 24 24" fill="none" xmlns="http://www.w3.org/2000/svg">
<g id="icon/color/ic_notification_shipping">
<g id="on-time">
<path id="Combined Shape" fill-rule="evenodd" clip-rule="evenodd" d="M23.9846 13.5665L20.4739 9.74154C20.2159 9.46018 19.8516 9.30002 19.4698 9.30005H15.1113V13.5665V19.7724H16.7785C16.7785 18.4553 17.8463 17.3875 19.1634 17.3875C20.4806 17.3875 21.5484 18.4553 21.5484 19.7724H22.6217C22.9832 19.7725 23.3299 19.6289 23.5855 19.3733C23.8411 19.1177 23.9847 18.7709 23.9846 18.4094V13.5665Z" fill="url(#paint0_linear_0_8865)"/>
<circle id="Oval" cx="19.1632" cy="19.7724" r="2.38493" fill="#7A4F01"/>
<path id="Path" fill-rule="evenodd" clip-rule="evenodd" d="M15.1111 13.5665V19.7724H7.85246C7.85246 18.4551 6.78457 17.3872 5.46725 17.3872C4.14994 17.3872 3.08204 18.4551 3.08204 19.7724H1.3786C1.0171 19.7725 0.670387 19.6289 0.414766 19.3733C0.159146 19.1177 0.0155658 18.7709 0.015625 18.4094V7.03009C0.0155658 6.66859 0.159146 6.32188 0.414766 6.06626C0.670387 5.81063 1.0171 5.66706 1.3786 5.66711H2.85711C2.94212 8.0702 4.91485 9.97439 7.31944 9.97439C9.72402 9.97439 11.6968 8.0702 11.7818 5.66711H13.7481C14.5008 5.66718 15.111 6.27737 15.1111 7.03009V13.5665Z" fill="#B78103"/>
<path id="Path_2" fill-rule="evenodd" clip-rule="evenodd" d="M11.7847 5.517C11.7847 5.56723 11.7842 5.61746 11.7819 5.66714C11.6969 8.07022 9.72419 9.97441 7.31961 9.97441C4.91502 9.97441 2.94228 8.07022 2.85728 5.66714C2.85505 5.61746 2.85449 5.56723 2.85449 5.517C2.85449 3.05098 4.85359 1.05188 7.31961 1.05188C9.78562 1.05188 11.7847 3.05098 11.7847 5.517V5.517Z" fill="#74CAFF" stroke="#74CAFF"/>
<path id="Path_3" fill-rule="evenodd" clip-rule="evenodd" d="M5.46696 17.3875C6.78412 17.3875 7.85189 18.4552 7.85189 19.7724C7.85189 21.0895 6.78412 22.1573 5.46696 22.1573C4.1498 22.1573 3.08203 21.0895 3.08203 19.7724C3.08206 18.4552 4.14981 17.3875 5.46696 17.3875Z" fill="#7A4F01"/>
<path id="Path_4" fill-rule="evenodd" clip-rule="evenodd" d="M8.80953 7.30308C8.71036 7.30321 8.61487 7.26548 8.54257 7.1976L7.05234 5.80225C6.97346 5.72837 6.9287 5.62512 6.92871 5.51704V2.62141C6.92871 2.40563 7.10363 2.23071 7.31941 2.23071C7.53518 2.23071 7.71011 2.40563 7.71011 2.62141V5.34792L9.07666 6.62746C9.19373 6.73707 9.23193 6.90709 9.17299 7.05624C9.11406 7.20539 8.96996 7.30338 8.80959 7.30336L8.80953 7.30308Z" fill="#0C53B7"/>
</g>
</g>
<defs>
<linearGradient id="paint0_linear_0_8865" x1="10.6747" y1="14.5362" x2="21.0049" y2="23.2891" gradientUnits="userSpaceOnUse">
<stop stop-color="#FFE16A"/>
<stop offset="1" stop-color="#B78103"/>
</linearGradient>
</defs>
</svg>
