<svg width="24" height="24" viewBox="0 0 24 24" fill="none" xmlns="http://www.w3.org/2000/svg">
<g id="icon/color/ic_notification_package">
<g id="receive">
<path id="Path" fill-rule="evenodd" clip-rule="evenodd" d="M15.0478 20.02C13.957 18.1401 14.2655 15.7619 15.7998 14.2225C17.3342 12.6831 19.7114 12.3668 21.5949 13.4514C23.4784 14.5361 24.398 16.7509 23.8367 18.8506C23.2754 20.9504 21.3733 22.4109 19.1998 22.411C17.4869 22.4174 15.902 21.5048 15.0478 20.02Z" fill="url(#paint0_linear_0_8848)"/>
<path id="Path_2" fill-rule="evenodd" clip-rule="evenodd" d="M19.1996 5.57753V12.811C17.4829 12.8112 15.897 13.728 15.0402 15.2156C14.1834 16.7032 14.1863 18.5351 15.0476 20.02L9.59961 23.165V11.119L19.1986 5.57703L19.1996 5.57753Z" fill="#FFE16A"/>
<path id="Path_3" fill-rule="evenodd" clip-rule="evenodd" d="M9.59984 11.1191L6.25684 9.18909L15.8563 3.64709L19.1988 5.57709L9.59984 11.1191V11.1191Z" fill="#FFC107"/>
<path id="Path_4" fill-rule="evenodd" clip-rule="evenodd" d="M15.8565 3.647L6.25705 9.189L3.81055 7.7765L13.4095 2.2345L15.8565 3.647V3.647Z" fill="url(#paint1_linear_0_8848)"/>
<path id="Path_5" fill-rule="evenodd" clip-rule="evenodd" d="M9.59998 0.0350342L13.4095 2.23453L3.81048 7.77653H3.80998L0.000976562 5.57703L9.59998 0.0350342V0.0350342Z" fill="#FFE16A"/>
<path id="Path_6" fill-rule="evenodd" clip-rule="evenodd" d="M9.6 11.119V23.165L0 17.6225V5.57753L0.001 5.57703L3.81 7.77653V15.764L4.9725 15.284L6.24 16.724V9.19903L6.257 9.18903L9.6 11.119V11.119Z" fill="#FFC107"/>
<path id="Path_7" fill-rule="evenodd" clip-rule="evenodd" d="M6.25657 9.18899L6.23957 9.19899V16.724L4.97207 15.284L3.80957 15.764V7.77649H3.81007L6.25657 9.18899V9.18899Z" fill="url(#paint2_linear_0_8848)"/>
<path id="Path_8" fill-rule="evenodd" clip-rule="evenodd" d="M1.2416 17.7185C1.0483 17.7185 0.891602 17.5618 0.891602 17.3685V16.0725C0.891602 15.8792 1.0483 15.7225 1.2416 15.7225C1.4349 15.7225 1.5916 15.8792 1.5916 16.0725V17.3685C1.5916 17.5618 1.4349 17.7185 1.2416 17.7185V17.7185Z" fill="#FFE16A"/>
<path id="Path_9" fill-rule="evenodd" clip-rule="evenodd" d="M2.6625 18.55C2.4692 18.55 2.3125 18.3933 2.3125 18.2V17.0325C2.3125 16.8392 2.4692 16.6825 2.6625 16.6825C2.8558 16.6825 3.0125 16.8392 3.0125 17.0325V18.2C3.0125 18.3933 2.8558 18.55 2.6625 18.55V18.55Z" fill="#FFE16A"/>
<path id="Path_10" fill-rule="evenodd" clip-rule="evenodd" d="M4.08437 19.3706C3.89108 19.3706 3.73438 19.2139 3.73438 19.0206V17.9926C3.73437 17.7993 3.89108 17.6426 4.08437 17.6426C4.27767 17.6426 4.43437 17.7993 4.43437 17.9926V19.0206C4.43437 19.2139 4.27767 19.3706 4.08437 19.3706V19.3706Z" fill="#FFE16A"/>
<path id="Path_11" fill-rule="evenodd" clip-rule="evenodd" d="M5.50527 20.191C5.31197 20.191 5.15527 20.0343 5.15527 19.841V18.9525C5.15527 18.7592 5.31197 18.6025 5.50527 18.6025C5.69857 18.6025 5.85527 18.7592 5.85527 18.9525V19.841C5.85527 20.0343 5.69857 20.191 5.50527 20.191V20.191Z" fill="#FFE16A"/>
<path id="Path_12" fill-rule="evenodd" clip-rule="evenodd" d="M6.92617 21.0305C6.73287 21.0305 6.57617 20.8738 6.57617 20.6805V19.9125C6.57617 19.7192 6.73287 19.5625 6.92617 19.5625C7.11947 19.5625 7.27617 19.7192 7.27617 19.9125V20.6805C7.27617 20.8738 7.11947 21.0305 6.92617 21.0305V21.0305Z" fill="#FFE16A"/>
<path id="Path_13" fill-rule="evenodd" clip-rule="evenodd" d="M11.5888 18.0471C11.4302 18.0473 11.2914 17.9409 11.2503 17.7878C11.2092 17.6347 11.2761 17.4731 11.4135 17.3939L13.008 16.4734C13.1163 16.4109 13.2497 16.4109 13.358 16.4734C13.4663 16.5359 13.533 16.6515 13.533 16.7765C13.533 16.9016 13.4663 17.0171 13.358 17.0797L11.7635 18.0001C11.7104 18.0309 11.6501 18.0471 11.5888 18.0471V18.0471Z" fill="#B78103"/>
<path id="Path_14" d="M18.1105 19.32C18.008 19.3201 17.9106 19.2752 17.8441 19.1972L16.6841 17.8382C16.6018 17.7433 16.5768 17.6115 16.6185 17.493C16.6602 17.3744 16.7622 17.2874 16.8858 17.2648C17.0094 17.2422 17.1356 17.2876 17.2165 17.3838L18.1545 18.4827L21.2295 15.981C21.3264 15.9012 21.4587 15.8793 21.5761 15.9238C21.6935 15.9683 21.7781 16.0723 21.7977 16.1963C21.8174 16.3203 21.7692 16.4453 21.6713 16.5239L18.3313 19.2415C18.269 19.2924 18.1909 19.3201 18.1105 19.32Z" fill="#005249"/>
<path id="Path_15" fill-rule="evenodd" clip-rule="evenodd" d="M12.5423 11.3318C12.4651 11.25 12.3533 11.2103 12.2419 11.2251C12.1304 11.2398 12.0328 11.3073 11.9795 11.4063L11.1345 12.9783C11.0762 13.0868 11.0791 13.2179 11.1423 13.3236C11.2054 13.4293 11.3194 13.4941 11.4425 13.4941C11.5731 13.4944 11.6936 13.4239 11.7571 13.3098L11.9498 12.9624V15.9711C11.9498 16.1644 12.1065 16.3211 12.2998 16.3211C12.4931 16.3211 12.6498 16.1644 12.6498 15.9711V12.4526L12.9343 12.7604C12.9975 12.8278 13.0849 12.8673 13.1773 12.87C13.2696 12.8726 13.3592 12.8383 13.4261 12.7746C13.4935 12.7107 13.5327 12.6226 13.5351 12.5297C13.5374 12.4369 13.5028 12.3469 13.4388 12.2796L12.5423 11.3318Z" fill="#B78103"/>
</g>
</g>
<defs>
<linearGradient id="paint0_linear_0_8848" x1="9.59914" y1="17.611" x2="19.1993" y2="27.2115" gradientUnits="userSpaceOnUse">
<stop stop-color="#5BE584"/>
<stop offset="1" stop-color="#00AB55"/>
</linearGradient>
<linearGradient id="paint1_linear_0_8848" x1="-2.21245" y1="5.71175" x2="3.81021" y2="16.1437" gradientUnits="userSpaceOnUse">
<stop stop-color="#FFE16A"/>
<stop offset="1" stop-color="#B78103"/>
</linearGradient>
<linearGradient id="paint2_linear_0_8848" x1="2.58607" y1="12.2502" x2="7.1395" y2="13.4955" gradientUnits="userSpaceOnUse">
<stop stop-color="#FFE16A"/>
<stop offset="1" stop-color="#B78103"/>
</linearGradient>
</defs>
</svg>
