<svg width="36" height="24" viewBox="0 0 36 24" fill="none" xmlns="http://www.w3.org/2000/svg">
<g id="icon/color/ic_paypal">
<rect id="background" width="36" height="24" rx="4" fill="white"/>
<path id="Path" d="M14.3405 21.3201L14.6905 19.1201H13.9105H10.2305L12.7905 2.86005C12.7973 2.80968 12.8222 2.76349 12.8605 2.73005C12.9007 2.69899 12.9497 2.68148 13.0005 2.68005H19.2105C21.2805 2.68005 22.7005 3.11005 23.4505 3.96005C23.7823 4.31658 24.0135 4.75486 24.1205 5.23005C24.2371 5.80756 24.2371 6.40255 24.1205 6.98005V7.48005L24.4705 7.68005C24.7369 7.81286 24.9774 7.99236 25.1805 8.21005C25.4861 8.57905 25.6835 9.02561 25.7505 9.50005C25.8254 10.1203 25.7984 10.7486 25.6705 11.3601C25.5386 12.1028 25.278 12.8169 24.9005 13.4701C24.5954 13.9937 24.183 14.4469 23.6905 14.8001C23.1947 15.1381 22.6428 15.3853 22.0605 15.5301C21.4068 15.695 20.7346 15.7756 20.0605 15.7701H19.5705C19.227 15.7701 18.8945 15.8904 18.6305 16.1101C18.3651 16.3337 18.1908 16.6467 18.1405 16.9901V17.1901L17.5305 21.0701V21.2201C17.5377 21.2462 17.5377 21.2739 17.5305 21.3001H17.4705L14.3405 21.3201Z" fill="#253D80"/>
<path id="Path_2" d="M24.8002 7.07996L24.7402 7.44996C23.9202 11.65 21.1102 13.11 17.5302 13.11H15.7102C15.2724 13.1094 14.8991 13.4275 14.8302 13.86L13.9002 19.78L13.6302 21.46C13.61 21.5945 13.649 21.7312 13.7372 21.8348C13.8254 21.9383 13.9542 21.9986 14.0902 22H17.3302C17.7144 21.9996 18.0411 21.7196 18.1002 21.34V21.18L18.7102 17.31V17.1C18.7648 16.7219 19.0883 16.441 19.4702 16.44H20.0002C23.1302 16.44 25.5902 15.17 26.3002 11.44C26.6844 10.1651 26.4474 8.78383 25.6602 7.70996C25.4105 7.45377 25.1198 7.24087 24.8002 7.07996V7.07996Z" fill="#189BD7"/>
<path id="Path_3" d="M23.9404 6.73997L23.5604 6.63997L23.1404 6.55997C22.6108 6.48078 22.0758 6.44399 21.5404 6.44997H16.6604C16.5464 6.44684 16.4333 6.47083 16.3304 6.51997C16.0985 6.62853 15.9369 6.84654 15.9004 7.09997L14.9004 13.67V13.86C14.9693 13.4275 15.3425 13.1094 15.7804 13.11H17.6004C21.1804 13.11 23.9904 11.65 24.8104 7.44997L24.8704 7.07997C24.655 6.96866 24.4309 6.87502 24.2004 6.79997L23.9404 6.73997Z" fill="#242E65"/>
<path id="Path_4" d="M15.9004 7.1C15.9369 6.84658 16.0985 6.62856 16.3304 6.52C16.4333 6.47086 16.5464 6.44687 16.6604 6.45H21.5404C22.0758 6.44403 22.6108 6.48081 23.1404 6.56L23.5604 6.64L23.9404 6.74L24.1304 6.8C24.3609 6.87505 24.585 6.96869 24.8004 7.08C25.1254 5.83063 24.8275 4.50118 24.0004 3.51C23.0004 2.45 21.3604 2 19.2204 2H13.0004C12.5625 1.99947 12.1893 2.31756 12.1204 2.75L9.53038 19.16C9.50719 19.3148 9.55227 19.472 9.65395 19.5909C9.75563 19.7098 9.9039 19.7788 10.0604 19.78H13.9004L14.9004 13.67L15.9004 7.1Z" fill="#253D80"/>
</g>
</svg>
