<svg width="80" height="80" viewBox="0 0 80 80" fill="none" xmlns="http://www.w3.org/2000/svg">
<g id="icon/color/ic_plan_starter">
<mask id="mask0_0_8897" style="mask-type:alpha" maskUnits="userSpaceOnUse" x="0" y="0" width="80" height="80">
<rect id="mask" width="80" height="80" fill="white"/>
</mask>
<g mask="url(#mask0_0_8897)">
<g id="icon/color/ic_plan_free">
<mask id="mask1_0_8897" style="mask-type:alpha" maskUnits="userSpaceOnUse" x="0" y="4" width="80" height="80">
<rect id="mask_2" y="4.14954" width="80" height="79.8505" fill="white"/>
</mask>
<g mask="url(#mask1_0_8897)">
<rect id="-path" x="62.5" y="41.5795" width="8.33334" height="7.48598" fill="#00796B"/>
<path id="-path_2" fill-rule="evenodd" clip-rule="evenodd" d="M10.1022 44.5627L35.1303 32.1259C36.5551 31.418 38.23 31.4225 39.6509 32.1381L69.9066 47.3756C70.7373 47.794 71.0717 48.8068 70.6533 49.6377C70.4936 49.9549 70.2378 50.2135 69.9223 50.3765L44.5842 63.4733C43.1096 64.2355 41.3547 64.2247 39.8896 63.4444L10.0599 47.558C9.23892 47.1208 8.92776 46.1007 9.36495 45.2795C9.52997 44.9696 9.78772 44.719 10.1022 44.5627Z" fill="#004D40"/>
<path id="-path_3" fill-rule="evenodd" clip-rule="evenodd" d="M41.667 58.3157V62.5011C41.667 63.1264 41.1591 63.6333 40.5327 63.6333C40.3842 63.6333 40.2375 63.6042 40.1008 63.548L40.0003 63.5009L40.0001 55.9642C40.999 56.3161 41.667 57.2584 41.667 58.3157ZM10.0003 40.044L40.0003 55.9642V63.5009L10.0002 47.5783L9.99949 47.5591L9.88545 47.4925C9.44007 47.2054 9.16699 46.7104 9.16699 46.1752V38.2523L10.0003 40.044Z" fill="#00796B"/>
<path id="-path_4" d="M10.1022 37.0767L35.1303 24.64C36.5551 23.932 38.23 23.9365 39.6509 24.6521L69.9066 39.8897C70.7373 40.3081 71.0717 41.3208 70.6533 42.1517C70.4936 42.4689 70.2378 42.7275 69.9223 42.8906L44.5842 55.9874C43.1096 56.7495 41.3547 56.7387 39.8896 55.9585L10.0599 40.0721C9.23892 39.6348 8.92776 38.6147 9.36495 37.7936C9.52997 37.4836 9.78772 37.233 10.1022 37.0767Z" fill="#4DB6AC"/>
</g>
</g>
<g id="icon/color/ic_plan_free_2">
<mask id="mask2_0_8897" style="mask-type:alpha" maskUnits="userSpaceOnUse" x="0" y="-5" width="80" height="80">
<rect id="mask_3" y="-5" width="80" height="79.8505" fill="white"/>
</mask>
<g mask="url(#mask2_0_8897)">
<rect id="-path_5" x="62.5" y="32.4299" width="8.33334" height="7.48598" fill="#00796B"/>
<path id="-path_6" fill-rule="evenodd" clip-rule="evenodd" d="M10.1022 35.4132L35.1303 22.9764C36.5551 22.2684 38.23 22.2729 39.6509 22.9885L69.9066 38.2261C70.7373 38.6445 71.0717 39.6572 70.6533 40.4881C70.4936 40.8053 70.2378 41.0639 69.9223 41.227L44.5842 54.3238C43.1096 55.086 41.3547 55.0752 39.8896 54.2949L10.0599 38.4085C9.23892 37.9713 8.92776 36.9511 9.36495 36.13C9.52997 35.82 9.78772 35.5694 10.1022 35.4132Z" fill="#004D40"/>
<path id="-path_7" fill-rule="evenodd" clip-rule="evenodd" d="M41.667 49.1661V53.3516C41.667 53.9769 41.1591 54.4838 40.5327 54.4838C40.3842 54.4838 40.2375 54.4547 40.1008 54.3985L40.0003 54.3513L40.0001 46.8147C40.999 47.1666 41.667 48.1089 41.667 49.1661ZM10.0003 30.8944L40.0003 46.8147V54.3513L10.0002 38.4288L9.99949 38.4095L9.88545 38.343C9.44007 38.0558 9.16699 37.5609 9.16699 37.0257V29.1028L10.0003 30.8944Z" fill="#00796B"/>
<path id="-path_8" d="M10.1022 27.9272L35.1303 15.4904C36.5551 14.7825 38.23 14.787 39.6509 15.5026L69.9066 30.7401C70.7373 31.1585 71.0717 32.1713 70.6533 33.0022C70.4936 33.3194 70.2378 33.578 69.9223 33.741L44.5842 46.8378C43.1096 47.6 41.3547 47.5892 39.8896 46.8089L10.0599 30.9225C9.23892 30.4853 8.92776 29.4652 9.36495 28.644C9.52997 28.3341 9.78772 28.0835 10.1022 27.9272Z" fill="#4DB6AC"/>
</g>
</g>
</g>
</g>
</svg>
