<svg width="80" height="80" viewBox="0 0 80 80" fill="none" xmlns="http://www.w3.org/2000/svg">
<g id="icon/color/ic_plan_premium">
<mask id="mask0_0_8891" style="mask-type:alpha" maskUnits="userSpaceOnUse" x="0" y="0" width="80" height="80">
<rect id="mask" width="80" height="80" fill="white"/>
</mask>
<g mask="url(#mask0_0_8891)">
<g id="icon/color/ic_plan_free">
<mask id="mask1_0_8891" style="mask-type:alpha" maskUnits="userSpaceOnUse" x="0" y="9" width="80" height="80">
<rect id="mask_2" y="9.27124" width="80" height="79.7288" fill="white"/>
</mask>
<g mask="url(#mask1_0_8891)">
<rect id="-path" x="62.5" y="46.6442" width="8.33334" height="7.47458" fill="#00796B"/>
<path id="-path_2" fill-rule="evenodd" clip-rule="evenodd" d="M10.1022 49.6228L35.1303 37.205C36.5551 36.4981 38.23 36.5026 39.6509 37.2171L69.9066 52.4314C70.7373 52.8492 71.0717 53.8604 70.6533 54.69C70.4936 55.0068 70.2378 55.265 69.9223 55.4278L44.5842 68.5046C43.1096 69.2656 41.3547 69.2548 39.8896 68.4758L10.0599 52.6136C9.23892 52.177 8.92776 51.1584 9.36495 50.3385C9.52997 50.029 9.78772 49.7788 10.1022 49.6228Z" fill="#004D40"/>
<path id="-path_3" fill-rule="evenodd" clip-rule="evenodd" d="M41.667 63.3549V67.534C41.667 68.1583 41.1591 68.6645 40.5327 68.6645C40.3842 68.6645 40.2375 68.6354 40.1008 68.5793L40.0003 68.5322L40.0001 61.0071C40.999 61.3584 41.667 62.2993 41.667 63.3549ZM10.0003 45.1111L40.0003 61.0071V68.5322L10.0002 52.6339L9.99949 52.6147L9.88545 52.5483C9.44007 52.2615 9.16699 51.7674 9.16699 51.233V43.3221L10.0003 45.1111Z" fill="#00796B"/>
<path id="-path_4" d="M10.1022 42.1483L35.1303 29.7305C36.5551 29.0236 38.23 29.0281 39.6509 29.7426L69.9066 44.9569C70.7373 45.3747 71.0717 46.3859 70.6533 47.2156C70.4936 47.5323 70.2378 47.7905 69.9223 47.9533L44.5842 61.0301C43.1096 61.7911 41.3547 61.7804 39.8896 61.0013L10.0599 45.1391C9.23892 44.7025 8.92776 43.6839 9.36495 42.864C9.52997 42.5545 9.78772 42.3043 10.1022 42.1483Z" fill="#4DB6AC"/>
</g>
</g>
<g id="icon/color/ic_plan_free_2">
<mask id="mask2_0_8891" style="mask-type:alpha" maskUnits="userSpaceOnUse" x="0" y="0" width="80" height="80">
<rect id="mask_3" y="0.13562" width="80" height="79.7288" fill="white"/>
</mask>
<g mask="url(#mask2_0_8891)">
<rect id="-path_5" x="62.5" y="37.5085" width="8.33334" height="7.47458" fill="#00796B"/>
<path id="-path_6" fill-rule="evenodd" clip-rule="evenodd" d="M10.1022 40.4872L35.1303 28.0693C36.5551 27.3625 38.23 27.3669 39.6509 28.0815L69.9066 43.2958C70.7373 43.7136 71.0717 44.7248 70.6533 45.5544C70.4936 45.8711 70.2378 46.1293 69.9223 46.2921L44.5842 59.369C43.1096 60.13 41.3547 60.1192 39.8896 59.3401L10.0599 43.4779C9.23892 43.0414 8.92776 42.0228 9.36495 41.2029C9.52997 40.8934 9.78772 40.6432 10.1022 40.4872Z" fill="#004D40"/>
<path id="-path_7" fill-rule="evenodd" clip-rule="evenodd" d="M41.667 54.2193V58.3984C41.667 59.0227 41.1591 59.5288 40.5327 59.5288C40.3842 59.5288 40.2375 59.4998 40.1008 59.4437L40.0003 59.3966L40.0001 51.8715C40.999 52.2228 41.667 53.1637 41.667 54.2193ZM10.0003 35.9754L40.0003 51.8715V59.3966L10.0002 43.4983L9.99949 43.4791L9.88545 43.4126C9.44007 43.1259 9.16699 42.6318 9.16699 42.0974V34.1865L10.0003 35.9754Z" fill="#00796B"/>
<path id="-path_8" d="M10.1022 33.0127L35.1303 20.5949C36.5551 19.888 38.23 19.8925 39.6509 20.607L69.9066 35.8213C70.7373 36.2391 71.0717 37.2503 70.6533 38.0799C70.4936 38.3966 70.2378 38.6549 69.9223 38.8177L44.5842 51.8945C43.1096 52.6555 41.3547 52.6447 39.8896 51.8656L10.0599 36.0035C9.23892 35.5669 8.92776 34.5483 9.36495 33.7284C9.52997 33.4189 9.78772 33.1687 10.1022 33.0127Z" fill="#4DB6AC"/>
</g>
</g>
<g id="icon/color/ic_plan_free_3">
<mask id="mask3_0_8891" style="mask-type:alpha" maskUnits="userSpaceOnUse" x="0" y="-9" width="80" height="80">
<rect id="mask_4" y="-9" width="80" height="79.7288" fill="white"/>
</mask>
<g mask="url(#mask3_0_8891)">
<rect id="-path_9" x="62.5" y="28.3729" width="8.33334" height="7.47458" fill="#00796B"/>
<path id="-path_10" fill-rule="evenodd" clip-rule="evenodd" d="M10.1022 31.3515L35.1303 18.9337C36.5551 18.2268 38.23 18.2313 39.6509 18.9458L69.9066 34.1602C70.7373 34.5779 71.0717 35.5892 70.6533 36.4188C70.4936 36.7355 70.2378 36.9937 69.9223 37.1565L44.5842 50.2333C43.1096 50.9944 41.3547 50.9836 39.8896 50.2045L10.0599 34.3423C9.23892 33.9057 8.92776 32.8872 9.36495 32.0673C9.52997 31.7578 9.78772 31.5076 10.1022 31.3515Z" fill="#004D40"/>
<path id="-path_11" fill-rule="evenodd" clip-rule="evenodd" d="M41.667 45.0837V49.2628C41.667 49.8871 41.1591 50.3932 40.5327 50.3932C40.3842 50.3932 40.2375 50.3642 40.1008 50.3081L40.0003 50.261L40.0001 42.7358C40.999 43.0872 41.667 44.028 41.667 45.0837ZM10.0003 26.8398L40.0003 42.7358V50.261L10.0002 34.3627L9.99949 34.3435L9.88545 34.277C9.44007 33.9903 9.16699 33.4961 9.16699 32.9617V25.0509L10.0003 26.8398Z" fill="#00796B"/>
<path id="-path_12" d="M10.1022 23.8771L35.1303 11.4592C36.5551 10.7523 38.23 10.7568 39.6509 11.4714L69.9066 26.6857C70.7373 27.1035 71.0717 28.1147 70.6533 28.9443C70.4936 29.261 70.2378 29.5192 69.9223 29.682L44.5842 42.7589C43.1096 43.5199 41.3547 43.5091 39.8896 42.73L10.0599 26.8678C9.23892 26.4313 8.92776 25.4127 9.36495 24.5928C9.52997 24.2833 9.78772 24.0331 10.1022 23.8771Z" fill="#4DB6AC"/>
</g>
</g>
</g>
</g>
</svg>
