<svg width="80" height="80" viewBox="0 0 80 80" fill="none" xmlns="http://www.w3.org/2000/svg">
<g id="icon/color/ic_plan_free">
<mask id="mask0_0_8882" style="mask-type:alpha" maskUnits="userSpaceOnUse" x="0" y="0" width="80" height="80">
<rect id="mask" width="80" height="80" fill="white"/>
</mask>
<g mask="url(#mask0_0_8882)">
<rect id="-path" x="62.5" y="37.5" width="8.33333" height="7.5" fill="#00796B"/>
<path id="-path_2" fill-rule="evenodd" clip-rule="evenodd" d="M10.1022 40.4888L35.1303 28.0288C36.5551 27.3195 38.23 27.324 39.6509 28.0409L69.9066 43.307C70.7373 43.7262 71.0717 44.7409 70.6533 45.5733C70.4936 45.8911 70.2378 46.1502 69.9223 46.3136L44.5842 59.4349C43.1096 60.1985 41.3547 60.1877 39.8896 59.4059L10.0599 43.4898C9.23892 43.0517 8.92776 42.0297 9.36495 41.207C9.52997 40.8965 9.78772 40.6454 10.1022 40.4888Z" fill="#004D40"/>
<path id="-path_3" fill-rule="evenodd" clip-rule="evenodd" d="M41.667 54.2676V58.4608C41.667 59.0873 41.1591 59.5951 40.5327 59.5951C40.3842 59.5951 40.2375 59.566 40.1008 59.5097L40.0003 59.4625L40.0002 51.9117C40.999 52.2642 41.667 53.2083 41.667 54.2676ZM10.0003 35.9616L40.0003 51.9117V59.4625L10.0002 43.5101L9.99949 43.4908L9.88545 43.4241C9.44007 43.1364 9.16699 42.6406 9.16699 42.1044V34.1666L10.0003 35.9616Z" fill="#00796B"/>
<path id="-path_4" d="M10.1022 32.9888L35.1303 20.5288C36.5551 19.8195 38.23 19.824 39.6509 20.5409L69.9066 35.807C70.7373 36.2262 71.0717 37.2409 70.6533 38.0733C70.4936 38.3911 70.2378 38.6502 69.9223 38.8136L44.5842 51.9349C43.1096 52.6985 41.3547 52.6877 39.8896 51.9059L10.0599 35.9898C9.23892 35.5517 8.92776 34.5297 9.36495 33.707C9.52997 33.3965 9.78772 33.1454 10.1022 32.9888Z" fill="#4DB6AC"/>
</g>
</g>
</svg>
