<svg width="24" height="24" viewBox="0 0 24 24" fill="none" xmlns="http://www.w3.org/2000/svg">
<g id="icon/ navbar/ ic_blog">
<path id="Combined Shape" fill-rule="evenodd" clip-rule="evenodd" d="M16.9841 2H7C4.25397 2 2 4.25397 2 7.01587V17C2 19.746 4.25397 22 7 22H16.9841C19.746 22 22 19.746 22 16.9841V7.01587C22 4.25397 19.746 2 16.9841 2ZM18.2222 14.2857C18.2064 16.4444 16.4286 18.1905 14.254 18.1905H9.71429C7.53968 18.1905 5.80952 16.4603 5.80952 14.3016V9.69841C5.80952 7.53968 7.53968 5.80952 9.71429 5.80952H12.4762C13.4921 5.80952 14.9841 6.77778 15.5238 7.93651C15.5471 7.98836 15.5692 8.03302 15.5903 8.07566C15.6982 8.29409 15.7801 8.45974 15.873 9.26984L15.8858 9.37006V9.37007C15.9418 9.81163 15.9836 10.1412 16.1905 10.3333C16.3689 10.4939 16.813 10.5041 17.2101 10.5132C17.5196 10.5203 17.8005 10.5267 17.9048 10.6032L18.0794 10.746L18.1905 10.9683L18.2222 11.127V14.2857ZM11.9524 8.98413H9.7619C9.34921 8.98413 9 9.28571 9 9.69841C9 10.1111 9.34921 10.4127 9.7619 10.4127H11.9524C12.3651 10.4127 12.7143 10.1111 12.7143 9.69841C12.7143 9.28571 12.381 8.98413 11.9524 8.98413ZM14.2222 13.4286H9.7619C9.34921 13.4286 9 13.8095 9 14.2222C9 14.6349 9.33333 15.0159 9.7619 15.0159H14.2222C14.6349 15.0159 14.9683 14.6349 14.9683 14.2222C14.9683 13.8095 14.6349 13.4286 14.2222 13.4286Z" fill="#637381"/>
</g>
</svg>
