<svg width="24" height="24" viewBox="0 0 24 24" fill="none" xmlns="http://www.w3.org/2000/svg">
<g id="icon/ navbar/ ic_charts">
<path id="Path" opacity="0.48" d="M14.9047 10.8857H21.2571C21.6937 10.8857 22.0476 10.5318 22.0476 10.0952C22.0476 6.15036 18.8496 2.95239 14.9047 2.95239C14.4682 2.95239 14.1143 3.3063 14.1143 3.74287V10.0952C14.1143 10.5318 14.4682 10.8857 14.9047 10.8857Z" fill="#637381"/>
<path id="Path_2" d="M21.171 12.4762H13.4091C13.1793 12.4762 12.9588 12.3848 12.7963 12.2223C12.6338 12.0598 12.5424 11.8393 12.5424 11.6095V3.82853C12.5439 3.57867 12.4387 3.34006 12.2531 3.17271C12.0676 3.00535 11.8194 2.92518 11.571 2.95234C6.59954 3.48023 2.88249 7.76235 3.05875 12.7587C3.23501 17.755 7.24456 21.7645 12.2409 21.9408C17.2372 22.1171 21.5193 18.4 22.0472 13.4285C22.0686 13.1833 21.9858 12.9403 21.8192 12.7591C21.6525 12.5779 21.4172 12.4752 21.171 12.4762Z" fill="#637381"/>
</g>
</svg>
