<svg width="24" height="24" viewBox="0 0 24 24" fill="none" xmlns="http://www.w3.org/2000/svg">
<g id="icon/ navbar/ ic_authenticator">
<path id="Path" opacity="0.48" d="M7.60894 3.93536C8.53283 2.75306 10.0178 2.01854 11.5222 2.04244C13.0258 2.01854 14.5081 2.75129 15.4328 3.93093C16.1718 4.85748 16.562 6.05571 16.501 7.23978C15.8789 7.09907 15.247 7.00881 14.6178 6.90615C14.6001 5.94509 14.0797 5.01677 13.2904 4.47518C12.5461 3.9504 11.5638 3.77607 10.6877 4.0327C9.41956 4.37164 8.44522 5.58934 8.42664 6.90792C7.79744 7.00792 7.16558 7.09819 6.54434 7.24067C6.48328 6.05748 6.87177 4.86102 7.60894 3.93536Z" fill="#637381"/>
<path id="Shape" fill-rule="evenodd" clip-rule="evenodd" d="M19.0014 9.61642C19.0007 9.37194 19 9.12753 19.0016 8.88324C14.2042 7.22395 8.85292 7.22129 4.05469 8.8797C4.05583 9.22331 4.0555 9.56708 4.05518 9.91088C4.05474 10.3693 4.05431 10.8277 4.05734 11.2859C4.13433 12.9983 4.56796 14.6974 5.35026 16.2239C6.63699 18.793 8.87504 20.8585 11.5219 21.9682C13.3804 21.1859 15.0414 19.9399 16.3069 18.37C17.9998 16.2859 18.9715 13.6239 18.9919 10.9372C19.0038 10.4969 19.0026 10.0565 19.0014 9.61642ZM10.7414 13.685C10.0697 13.3806 9.61221 12.6514 9.67327 11.9089C9.68124 10.954 10.5635 10.1116 11.5193 10.1496C12.5087 10.1054 13.4166 11.0089 13.3715 11.9992C13.4007 12.7107 12.945 13.3921 12.3034 13.6841C12.9361 13.9062 13.483 14.3717 13.7653 14.9832C13.9804 15.4045 14.0078 15.8859 14.0166 16.3496C12.3538 16.3505 10.691 16.3505 9.02725 16.3496C9.02017 15.7328 9.12814 15.0894 9.51398 14.5885C9.81132 14.1638 10.2565 13.8611 10.7414 13.685Z" fill="#637381"/>
</g>
</svg>
