<svg width="24" height="24" viewBox="0 0 24 24" fill="none" xmlns="http://www.w3.org/2000/svg">
<g id="icon/ navbar/ ic_carousel">
<path id="Combined Shape" fill-rule="evenodd" clip-rule="evenodd" d="M2.43457 3.67391C2.43457 2.4733 3.40786 1.5 4.60848 1.5H19.3911C20.5917 1.5 21.565 2.47329 21.565 3.67391V14.9783C21.565 16.1789 20.5917 17.1522 19.3911 17.1522H4.60848C3.40787 17.1522 2.43457 16.1789 2.43457 14.9783V3.67391ZM18.4403 8.87454C18.7135 9.11359 18.7135 9.53859 18.4403 9.77763L16.4732 11.4988C16.0852 11.8383 15.478 11.5628 15.478 11.0473V7.60487C15.478 7.08937 16.0852 6.81387 16.4732 7.15332L18.4403 8.87454ZM5.55932 9.77763C5.28612 9.53859 5.28612 9.11359 5.55932 8.87454L7.52642 7.15332C7.91437 6.81387 8.52153 7.08937 8.52153 7.60487V11.0473C8.52153 11.5628 7.91437 11.8383 7.52642 11.4988L5.55932 9.77763Z" fill="#637381"/>
<path id="Combined Shape_2" opacity="0.48" fill-rule="evenodd" clip-rule="evenodd" d="M8.79961 20.7522C8.79961 21.6359 8.08327 22.3522 7.19961 22.3522C6.31595 22.3522 5.59961 21.6359 5.59961 20.7522C5.59961 19.8686 6.31595 19.1522 7.19961 19.1522C8.08327 19.1522 8.79961 19.8686 8.79961 20.7522ZM13.5996 20.7522C13.5996 21.6359 12.8833 22.3522 11.9996 22.3522C11.116 22.3522 10.3996 21.6359 10.3996 20.7522C10.3996 19.8686 11.116 19.1522 11.9996 19.1522C12.8833 19.1522 13.5996 19.8686 13.5996 20.7522ZM16.7996 22.3522C17.6833 22.3522 18.3996 21.6359 18.3996 20.7522C18.3996 19.8686 17.6833 19.1522 16.7996 19.1522C15.916 19.1522 15.1996 19.8686 15.1996 20.7522C15.1996 21.6359 15.916 22.3522 16.7996 22.3522Z" fill="#637381"/>
</g>
</svg>
