<svg width="24" height="24" viewBox="0 0 24 24" fill="none" xmlns="http://www.w3.org/2000/svg">
<g id="icon/ navbar/ ic_calendar">
<path id="Shape" fill-rule="evenodd" clip-rule="evenodd" d="M3.6 4.65002H20.4C21.5593 4.65118 22.4988 5.59071 22.5 6.75002V19.7C22.4988 20.8593 21.5593 21.7989 20.4 21.8H3.6C2.44068 21.7989 1.50116 20.8593 1.5 19.7V6.75002C1.50116 5.59071 2.44068 4.65118 3.6 4.65002ZM3.6 21.1H20.4C21.1732 21.1 21.8 20.4732 21.8 19.7V9.20002H2.2V19.7C2.2 20.4732 2.8268 21.1 3.6 21.1Z" fill="#637381"/>
<path id="Path" d="M17.9498 3.95V2.2C17.9498 1.8134 17.6364 1.5 17.2498 1.5C16.8632 1.5 16.5498 1.8134 16.5498 2.2V3.95H17.9498Z" fill="#637381"/>
<path id="Path_2" d="M7.4498 3.95V2.2C7.4498 1.8134 7.1364 1.5 6.7498 1.5C6.36321 1.5 6.0498 1.8134 6.0498 2.2V3.95H7.4498Z" fill="#637381"/>
<path id="Combined Shape" opacity="0.48" fill-rule="evenodd" clip-rule="evenodd" d="M4.29883 11.9415C4.29883 11.3892 4.74654 10.9415 5.29883 10.9415H7.49883C8.05111 10.9415 8.49883 11.3892 8.49883 11.9415V13.5415C8.49883 14.0938 8.05111 14.5415 7.49883 14.5415H5.29883C4.74654 14.5415 4.29883 14.0938 4.29883 13.5415V11.9415ZM4.29883 16.9417C4.29883 16.3894 4.74654 15.9417 5.29883 15.9417H7.49883C8.05111 15.9417 8.49883 16.3894 8.49883 16.9417V18.5417C8.49883 19.0939 8.05111 19.5417 7.49883 19.5417H5.29883C4.74654 19.5417 4.29883 19.0939 4.29883 18.5417V16.9417ZM10.9004 15.9417C10.3481 15.9417 9.90042 16.3894 9.90042 16.9417V18.5417C9.90042 19.0939 10.3481 19.5417 10.9004 19.5417H13.1004C13.6527 19.5417 14.1004 19.0939 14.1004 18.5417V16.9417C14.1004 16.3894 13.6527 15.9417 13.1004 15.9417H10.9004ZM9.90042 11.9415C9.90042 11.3892 10.3481 10.9415 10.9004 10.9415H13.1004C13.6527 10.9415 14.1004 11.3892 14.1004 11.9415V13.5415C14.1004 14.0938 13.6527 14.5415 13.1004 14.5415H10.9004C10.3481 14.5415 9.90042 14.0938 9.90042 13.5415V11.9415ZM16.502 10.9415C15.9497 10.9415 15.502 11.3892 15.502 11.9415V13.5415C15.502 14.0938 15.9497 14.5415 16.502 14.5415H18.702C19.2543 14.5415 19.702 14.0938 19.702 13.5415V11.9415C19.702 11.3892 19.2543 10.9415 18.702 10.9415H16.502Z" fill="#637381"/>
</g>
</svg>
